<?xml version="1.0" encoding="UTF-8" standalone="no"?>
<svg width="1693.33mm" height="733.778mm"
 viewBox="0 0 4800 2080"
 xmlns="http://www.w3.org/2000/svg" xmlns:xlink="http://www.w3.org/1999/xlink"  version="1.2" baseProfile="tiny">
<title>MadMapper SVG export</title>
<desc>MadMapper SVG export</desc>
<defs>
</defs>
<g fill="none" stroke="black" stroke-width="1" fill-rule="evenodd" stroke-linecap="square" stroke-linejoin="bevel" >

<g fill="none" stroke="#000000" stroke-opacity="1" stroke-width="1" stroke-linecap="square" stroke-linejoin="bevel" transform="matrix(1,0,0,1,0,0)"
font-family=".SF NS Text" font-size="10" font-weight="400" font-style="normal" 
>
</g>

<g fill="none" stroke="#000000" stroke-opacity="1" stroke-width="1" stroke-linecap="square" stroke-linejoin="bevel" transform="matrix(1,0,0,1,0,0)"
font-family=".SF NS Text" font-size="10" font-weight="400" font-style="normal" 
>
</g>

<g fill="#000000" fill-opacity="1" stroke="none" transform="matrix(1,0,0,1,0,0)"
font-family=".SF NS Text" font-size="10" font-weight="400" font-style="normal" 
>
<rect x="0" y="0" width="4800" height="2080"/>
</g>

<g fill="none" stroke="#000000" stroke-opacity="1" stroke-width="1" stroke-linecap="square" stroke-linejoin="bevel" transform="matrix(1,0,0,1,0,0)"
font-family=".SF NS Text" font-size="10" font-weight="400" font-style="normal" 
>
</g>

<g fill="none" stroke="#000000" stroke-opacity="1" stroke-width="1" stroke-linecap="square" stroke-linejoin="bevel" transform="matrix(1,0,0,1,0,0)"
font-family=".SF NS Text" font-size="10" font-weight="400" font-style="normal" 
>
</g>

<g fill="none" stroke="#ffffff" stroke-opacity="1" stroke-width="1" stroke-linecap="square" stroke-linejoin="bevel" transform="matrix(1,0,0,1,0,0)"
font-family=".SF NS Text" font-size="10" font-weight="400" font-style="normal" 
>
<rect vector-effect="non-scaling-stroke" x="0" y="0" width="4800" height="2080"/>
</g>

<g fill="none" stroke="#000000" stroke-opacity="1" stroke-width="1" stroke-linecap="square" stroke-linejoin="bevel" transform="matrix(1,0,0,1,0,0)"
font-family=".SF NS Text" font-size="10" font-weight="400" font-style="normal" 
>
</g>

<g fill="none" stroke="#000000" stroke-opacity="1" stroke-width="1" stroke-linecap="square" stroke-linejoin="bevel" transform="matrix(1,0,0,1,0,0)"
font-family=".SF NS Text" font-size="10" font-weight="400" font-style="normal" 
>
</g>

<g fill="none" stroke="#000000" stroke-opacity="0" stroke-width="1" stroke-linecap="square" stroke-linejoin="bevel" transform="matrix(1,0,0,1,0,0)"
font-family=".SF NS Text" font-size="10" font-weight="400" font-style="normal" 
>
<polyline fill="none" vector-effect="none" points="0,0 100,100 " />
</g>

<g fill="none" stroke="#000000" stroke-opacity="1" stroke-width="1" stroke-linecap="square" stroke-linejoin="bevel" transform="matrix(1,0,0,1,0,0)"
font-family=".SF NS Text" font-size="10" font-weight="400" font-style="normal" 
>
</g>

<g fill="none" stroke="#000000" stroke-opacity="1" stroke-width="1" stroke-linecap="square" stroke-linejoin="bevel" transform="matrix(0.866025,0.5,-0.5,0.866025,238.045,1030.21)"
font-family=".SF NS Text" font-size="10" font-weight="400" font-style="normal" 
>
</g>

<g fill="none" stroke="#ffffff" stroke-opacity="0.501961" stroke-width="1" stroke-linecap="square" stroke-linejoin="bevel" transform="matrix(0.866025,0.5,-0.5,0.866025,238.045,1030.21)"
font-family=".SF NS Text" font-size="10" font-weight="400" font-style="normal" 
>
<path vector-effect="non-scaling-stroke" fill-rule="nonzero" d="M-67.3346,-349.957 L-269.331,-0.0852456 L336.665,350.043 L-67.3346,-349.957"/>
</g>

<g fill="none" stroke="#000000" stroke-opacity="1" stroke-width="1" stroke-linecap="square" stroke-linejoin="bevel" transform="matrix(0.866025,0.5,-0.5,0.866025,238.045,1030.21)"
font-family=".SF NS Text" font-size="10" font-weight="400" font-style="normal" 
>
</g>

<g fill="none" stroke="#000000" stroke-opacity="1" stroke-width="1" stroke-linecap="square" stroke-linejoin="bevel" transform="matrix(-0.866025,-0.5,0.5,-0.866025,542.519,1222.62)"
font-family=".SF NS Text" font-size="10" font-weight="400" font-style="normal" 
>
</g>

<g fill="none" stroke="#ffffff" stroke-opacity="0.501961" stroke-width="1" stroke-linecap="square" stroke-linejoin="bevel" transform="matrix(-0.866025,-0.5,0.5,-0.866025,542.519,1222.62)"
font-family=".SF NS Text" font-size="10" font-weight="400" font-style="normal" 
>
<path vector-effect="non-scaling-stroke" fill-rule="nonzero" d="M-94.3224,-512.25 L-400.355,4.49971 L494.678,507.75 L-94.3224,-512.25"/>
</g>

<g fill="none" stroke="#000000" stroke-opacity="1" stroke-width="1" stroke-linecap="square" stroke-linejoin="bevel" transform="matrix(-0.866025,-0.5,0.5,-0.866025,542.519,1222.62)"
font-family=".SF NS Text" font-size="10" font-weight="400" font-style="normal" 
>
</g>

<g fill="none" stroke="#000000" stroke-opacity="1" stroke-width="1" stroke-linecap="square" stroke-linejoin="bevel" transform="matrix(0.866025,0.5,-0.5,0.866025,864.052,1115.81)"
font-family=".SF NS Text" font-size="10" font-weight="400" font-style="normal" 
>
</g>

<g fill="none" stroke="#ffffff" stroke-opacity="0.501961" stroke-width="1" stroke-linecap="square" stroke-linejoin="bevel" transform="matrix(0.866025,0.5,-0.5,0.866025,864.052,1115.81)"
font-family=".SF NS Text" font-size="10" font-weight="400" font-style="normal" 
>
<path vector-effect="non-scaling-stroke" fill-rule="nonzero" d="M-51.1666,-265.957 L-204.667,-0.0867337 L255.833,266.043 L-51.1666,-265.957"/>
</g>

<g fill="none" stroke="#000000" stroke-opacity="1" stroke-width="1" stroke-linecap="square" stroke-linejoin="bevel" transform="matrix(0.866025,0.5,-0.5,0.866025,864.052,1115.81)"
font-family=".SF NS Text" font-size="10" font-weight="400" font-style="normal" 
>
</g>

<g fill="none" stroke="#000000" stroke-opacity="1" stroke-width="1" stroke-linecap="square" stroke-linejoin="bevel" transform="matrix(-0.866025,-0.5,0.5,-0.866025,1097.31,1462.88)"
font-family=".SF NS Text" font-size="10" font-weight="400" font-style="normal" 
>
</g>

<g fill="none" stroke="#ffffff" stroke-opacity="0.501961" stroke-width="1" stroke-linecap="square" stroke-linejoin="bevel" transform="matrix(-0.866025,-0.5,0.5,-0.866025,1097.31,1462.88)"
font-family=".SF NS Text" font-size="10" font-weight="400" font-style="normal" 
>
<path vector-effect="non-scaling-stroke" fill-rule="nonzero" d="M-67.2604,-349.999 L-269.479,-0.00128019 L336.74,350.001 L-67.2604,-349.999"/>
</g>

<g fill="none" stroke="#000000" stroke-opacity="1" stroke-width="1" stroke-linecap="square" stroke-linejoin="bevel" transform="matrix(-0.866025,-0.5,0.5,-0.866025,1097.31,1462.88)"
font-family=".SF NS Text" font-size="10" font-weight="400" font-style="normal" 
>
</g>

<g fill="none" stroke="#000000" stroke-opacity="1" stroke-width="1" stroke-linecap="square" stroke-linejoin="bevel" transform="matrix(0.866025,0.5,-0.5,0.866025,1136.44,681.14)"
font-family=".SF NS Text" font-size="10" font-weight="400" font-style="normal" 
>
</g>

<g fill="none" stroke="#ffffff" stroke-opacity="0.501961" stroke-width="1" stroke-linecap="square" stroke-linejoin="bevel" transform="matrix(0.866025,0.5,-0.5,0.866025,1136.44,681.14)"
font-family=".SF NS Text" font-size="10" font-weight="400" font-style="normal" 
>
<path vector-effect="non-scaling-stroke" fill-rule="nonzero" d="M-98.1664,-510.03 L-392.667,0.0596543 L490.834,509.97 L-98.1664,-510.03"/>
</g>

<g fill="none" stroke="#000000" stroke-opacity="1" stroke-width="1" stroke-linecap="square" stroke-linejoin="bevel" transform="matrix(0.866025,0.5,-0.5,0.866025,1136.44,681.14)"
font-family=".SF NS Text" font-size="10" font-weight="400" font-style="normal" 
>
</g>

<g fill="none" stroke="#000000" stroke-opacity="1" stroke-width="1" stroke-linecap="square" stroke-linejoin="bevel" transform="matrix(-0.866025,-0.5,0.5,-0.866025,1545.86,1173.83)"
font-family=".SF NS Text" font-size="10" font-weight="400" font-style="normal" 
>
</g>

<g fill="none" stroke="#ffffff" stroke-opacity="0.501961" stroke-width="1" stroke-linecap="square" stroke-linejoin="bevel" transform="matrix(-0.866025,-0.5,0.5,-0.866025,1545.86,1173.83)"
font-family=".SF NS Text" font-size="10" font-weight="400" font-style="normal" 
>
<path vector-effect="non-scaling-stroke" fill-rule="nonzero" d="M-115.59,-600 L-461.82,0.00027975 L577.41,600 L-115.59,-600"/>
</g>

<g fill="none" stroke="#000000" stroke-opacity="1" stroke-width="1" stroke-linecap="square" stroke-linejoin="bevel" transform="matrix(-0.866025,-0.5,0.5,-0.866025,1545.86,1173.83)"
font-family=".SF NS Text" font-size="10" font-weight="400" font-style="normal" 
>
</g>

<g fill="none" stroke="#000000" stroke-opacity="1" stroke-width="1" stroke-linecap="square" stroke-linejoin="bevel" transform="matrix(0.866025,0.5,-0.5,0.866025,1623.76,576.337)"
font-family=".SF NS Text" font-size="10" font-weight="400" font-style="normal" 
>
</g>

<g fill="none" stroke="#ffffff" stroke-opacity="0.501961" stroke-width="1" stroke-linecap="square" stroke-linejoin="bevel" transform="matrix(0.866025,0.5,-0.5,0.866025,1623.76,576.337)"
font-family=".SF NS Text" font-size="10" font-weight="400" font-style="normal" 
>
<path vector-effect="non-scaling-stroke" fill-rule="nonzero" d="M-51.1666,-265.957 L-204.667,-0.0867337 L255.833,266.043 L-51.1666,-265.957"/>
</g>

<g fill="none" stroke="#000000" stroke-opacity="1" stroke-width="1" stroke-linecap="square" stroke-linejoin="bevel" transform="matrix(0.866025,0.5,-0.5,0.866025,1623.76,576.337)"
font-family=".SF NS Text" font-size="10" font-weight="400" font-style="normal" 
>
</g>

<g fill="none" stroke="#000000" stroke-opacity="1" stroke-width="1" stroke-linecap="square" stroke-linejoin="bevel" transform="matrix(-0.866025,-0.5,0.5,-0.866025,1862.64,608.934)"
font-family=".SF NS Text" font-size="10" font-weight="400" font-style="normal" 
>
</g>

<g fill="none" stroke="#ffffff" stroke-opacity="0.501961" stroke-width="1" stroke-linecap="square" stroke-linejoin="bevel" transform="matrix(-0.866025,-0.5,0.5,-0.866025,1862.64,608.934)"
font-family=".SF NS Text" font-size="10" font-weight="400" font-style="normal" 
>
<path vector-effect="non-scaling-stroke" fill-rule="nonzero" d="M-67.2604,-349.999 L-269.479,-0.00128019 L336.74,350.001 L-67.2604,-349.999"/>
</g>

<g fill="none" stroke="#000000" stroke-opacity="1" stroke-width="1" stroke-linecap="square" stroke-linejoin="bevel" transform="matrix(-0.866025,-0.5,0.5,-0.866025,1862.64,608.934)"
font-family=".SF NS Text" font-size="10" font-weight="400" font-style="normal" 
>
</g>

<g fill="none" stroke="#000000" stroke-opacity="1" stroke-width="1" stroke-linecap="square" stroke-linejoin="bevel" transform="matrix(0.866025,0.5,-0.5,0.866025,2063.63,1224.85)"
font-family=".SF NS Text" font-size="10" font-weight="400" font-style="normal" 
>
</g>

<g fill="none" stroke="#ffffff" stroke-opacity="0.501961" stroke-width="1" stroke-linecap="square" stroke-linejoin="bevel" transform="matrix(0.866025,0.5,-0.5,0.866025,2063.63,1224.85)"
font-family=".SF NS Text" font-size="10" font-weight="400" font-style="normal" 
>
<path vector-effect="non-scaling-stroke" fill-rule="nonzero" d="M-67.3346,-349.957 L-269.331,-0.0852456 L336.665,350.043 L-67.3346,-349.957"/>
</g>

<g fill="none" stroke="#000000" stroke-opacity="1" stroke-width="1" stroke-linecap="square" stroke-linejoin="bevel" transform="matrix(0.866025,0.5,-0.5,0.866025,2063.63,1224.85)"
font-family=".SF NS Text" font-size="10" font-weight="400" font-style="normal" 
>
</g>

<g fill="none" stroke="#000000" stroke-opacity="1" stroke-width="1" stroke-linecap="square" stroke-linejoin="bevel" transform="matrix(0.866025,0.5,-0.5,0.866025,2389.02,1170.52)"
font-family=".SF NS Text" font-size="10" font-weight="400" font-style="normal" 
>
</g>

<g fill="none" stroke="#ffffff" stroke-opacity="0.501961" stroke-width="1" stroke-linecap="square" stroke-linejoin="bevel" transform="matrix(0.866025,0.5,-0.5,0.866025,2389.02,1170.52)"
font-family=".SF NS Text" font-size="10" font-weight="400" font-style="normal" 
>
<path vector-effect="non-scaling-stroke" fill-rule="nonzero" d="M-392.667,-340 L196.333,-340 L196.333,680 L-392.667,-340"/>
</g>

<g fill="none" stroke="#000000" stroke-opacity="1" stroke-width="1" stroke-linecap="square" stroke-linejoin="bevel" transform="matrix(0.866025,0.5,-0.5,0.866025,2389.02,1170.52)"
font-family=".SF NS Text" font-size="10" font-weight="400" font-style="normal" 
>
</g>

<g fill="none" stroke="#000000" stroke-opacity="1" stroke-width="1" stroke-linecap="square" stroke-linejoin="bevel" transform="matrix(-0.866025,-0.5,0.5,-0.866025,2681.2,630.49)"
font-family=".SF NS Text" font-size="10" font-weight="400" font-style="normal" 
>
</g>

<g fill="none" stroke="#ffffff" stroke-opacity="0.501961" stroke-width="1" stroke-linecap="square" stroke-linejoin="bevel" transform="matrix(-0.866025,-0.5,0.5,-0.866025,2681.2,630.49)"
font-family=".SF NS Text" font-size="10" font-weight="400" font-style="normal" 
>
<path vector-effect="non-scaling-stroke" fill-rule="nonzero" d="M-204.667,-177.333 L102.333,-177.333 L102.333,354.667 L-204.667,-177.333"/>
</g>

<g fill="none" stroke="#000000" stroke-opacity="1" stroke-width="1" stroke-linecap="square" stroke-linejoin="bevel" transform="matrix(-0.866025,-0.5,0.5,-0.866025,2681.2,630.49)"
font-family=".SF NS Text" font-size="10" font-weight="400" font-style="normal" 
>
</g>

<g fill="none" stroke="#000000" stroke-opacity="1" stroke-width="1" stroke-linecap="square" stroke-linejoin="bevel" transform="matrix(0.866025,0.5,-0.5,0.866025,3003.88,789.04)"
font-family=".SF NS Text" font-size="10" font-weight="400" font-style="normal" 
>
</g>

<g fill="none" stroke="#ffffff" stroke-opacity="0.501961" stroke-width="1" stroke-linecap="square" stroke-linejoin="bevel" transform="matrix(0.866025,0.5,-0.5,0.866025,3003.88,789.04)"
font-family=".SF NS Text" font-size="10" font-weight="400" font-style="normal" 
>
<path vector-effect="non-scaling-stroke" fill-rule="nonzero" d="M-462,-400 L231,-400 L231,800 L-462,-400"/>
</g>

<g fill="none" stroke="#000000" stroke-opacity="1" stroke-width="1" stroke-linecap="square" stroke-linejoin="bevel" transform="matrix(0.866025,0.5,-0.5,0.866025,3003.88,789.04)"
font-family=".SF NS Text" font-size="10" font-weight="400" font-style="normal" 
>
</g>

<g fill="none" stroke="#000000" stroke-opacity="1" stroke-width="1" stroke-linecap="square" stroke-linejoin="bevel" transform="matrix(-0.866025,-0.5,0.5,-0.866025,3250.68,1311.04)"
font-family=".SF NS Text" font-size="10" font-weight="400" font-style="normal" 
>
</g>

<g fill="none" stroke="#ffffff" stroke-opacity="0.501961" stroke-width="1" stroke-linecap="square" stroke-linejoin="bevel" transform="matrix(-0.866025,-0.5,0.5,-0.866025,3250.68,1311.04)"
font-family=".SF NS Text" font-size="10" font-weight="400" font-style="normal" 
>
<path vector-effect="non-scaling-stroke" fill-rule="nonzero" d="M-392.667,-340 L196.333,-340 L196.333,680 L-392.667,-340"/>
</g>

<g fill="none" stroke="#000000" stroke-opacity="1" stroke-width="1" stroke-linecap="square" stroke-linejoin="bevel" transform="matrix(-0.866025,-0.5,0.5,-0.866025,3250.68,1311.04)"
font-family=".SF NS Text" font-size="10" font-weight="400" font-style="normal" 
>
</g>

<g fill="none" stroke="#000000" stroke-opacity="1" stroke-width="1" stroke-linecap="square" stroke-linejoin="bevel" transform="matrix(0.866025,0.5,-0.5,0.866025,3571.62,1251.63)"
font-family=".SF NS Text" font-size="10" font-weight="400" font-style="normal" 
>
</g>

<g fill="none" stroke="#ffffff" stroke-opacity="0.501961" stroke-width="1" stroke-linecap="square" stroke-linejoin="bevel" transform="matrix(0.866025,0.5,-0.5,0.866025,3571.62,1251.63)"
font-family=".SF NS Text" font-size="10" font-weight="400" font-style="normal" 
>
<path vector-effect="non-scaling-stroke" fill-rule="nonzero" d="M-269.333,-233.333 L134.667,-233.333 L134.667,466.667 L-269.333,-233.333"/>
</g>

<g fill="none" stroke="#000000" stroke-opacity="1" stroke-width="1" stroke-linecap="square" stroke-linejoin="bevel" transform="matrix(0.866025,0.5,-0.5,0.866025,3571.62,1251.63)"
font-family=".SF NS Text" font-size="10" font-weight="400" font-style="normal" 
>
</g>

<g fill="none" stroke="#000000" stroke-opacity="1" stroke-width="1" stroke-linecap="square" stroke-linejoin="bevel" transform="matrix(-0.866025,-0.5,0.5,-0.866025,3693.28,788.221)"
font-family=".SF NS Text" font-size="10" font-weight="400" font-style="normal" 
>
</g>

<g fill="none" stroke="#ffffff" stroke-opacity="0.501961" stroke-width="1" stroke-linecap="square" stroke-linejoin="bevel" transform="matrix(-0.866025,-0.5,0.5,-0.866025,3693.28,788.221)"
font-family=".SF NS Text" font-size="10" font-weight="400" font-style="normal" 
>
<path vector-effect="non-scaling-stroke" fill-rule="nonzero" d="M-204.667,-177.333 L102.333,-177.333 L102.333,354.667 L-204.667,-177.333"/>
</g>

<g fill="none" stroke="#000000" stroke-opacity="1" stroke-width="1" stroke-linecap="square" stroke-linejoin="bevel" transform="matrix(-0.866025,-0.5,0.5,-0.866025,3693.28,788.221)"
font-family=".SF NS Text" font-size="10" font-weight="400" font-style="normal" 
>
</g>

<g fill="none" stroke="#000000" stroke-opacity="1" stroke-width="1" stroke-linecap="square" stroke-linejoin="bevel" transform="matrix(0.866025,0.5,-0.5,0.866025,3902.52,1002.7)"
font-family=".SF NS Text" font-size="10" font-weight="400" font-style="normal" 
>
</g>

<g fill="none" stroke="#ffffff" stroke-opacity="0.501961" stroke-width="1" stroke-linecap="square" stroke-linejoin="bevel" transform="matrix(0.866025,0.5,-0.5,0.866025,3902.52,1002.7)"
font-family=".SF NS Text" font-size="10" font-weight="400" font-style="normal" 
>
<path vector-effect="non-scaling-stroke" fill-rule="nonzero" d="M-204.667,-177.333 L102.333,-177.333 L102.333,354.667 L-204.667,-177.333"/>
</g>

<g fill="none" stroke="#000000" stroke-opacity="1" stroke-width="1" stroke-linecap="square" stroke-linejoin="bevel" transform="matrix(0.866025,0.5,-0.5,0.866025,3902.52,1002.7)"
font-family=".SF NS Text" font-size="10" font-weight="400" font-style="normal" 
>
</g>

<g fill="none" stroke="#000000" stroke-opacity="1" stroke-width="1" stroke-linecap="square" stroke-linejoin="bevel" transform="matrix(-0.866025,-0.5,0.5,-0.866025,4176.71,1183.49)"
font-family=".SF NS Text" font-size="10" font-weight="400" font-style="normal" 
>
</g>

<g fill="none" stroke="#ffffff" stroke-opacity="0.501961" stroke-width="1" stroke-linecap="square" stroke-linejoin="bevel" transform="matrix(-0.866025,-0.5,0.5,-0.866025,4176.71,1183.49)"
font-family=".SF NS Text" font-size="10" font-weight="400" font-style="normal" 
>
<path vector-effect="non-scaling-stroke" fill-rule="nonzero" d="M-392.667,-340 L196.333,-340 L196.333,680 L-392.667,-340"/>
</g>

<g fill="none" stroke="#000000" stroke-opacity="1" stroke-width="1" stroke-linecap="square" stroke-linejoin="bevel" transform="matrix(-0.866025,-0.5,0.5,-0.866025,4176.71,1183.49)"
font-family=".SF NS Text" font-size="10" font-weight="400" font-style="normal" 
>
</g>

<g fill="none" stroke="#000000" stroke-opacity="1" stroke-width="1" stroke-linecap="square" stroke-linejoin="bevel" transform="matrix(-0.866025,-0.5,0.5,-0.866025,4709.57,1051.72)"
font-family=".SF NS Text" font-size="10" font-weight="400" font-style="normal" 
>
</g>

<g fill="none" stroke="#ffffff" stroke-opacity="0.501961" stroke-width="1" stroke-linecap="square" stroke-linejoin="bevel" transform="matrix(-0.866025,-0.5,0.5,-0.866025,4709.57,1051.72)"
font-family=".SF NS Text" font-size="10" font-weight="400" font-style="normal" 
>
<path vector-effect="non-scaling-stroke" fill-rule="nonzero" d="M-204.667,-177.333 L102.333,-177.333 L102.333,354.667 L-204.667,-177.333"/>
</g>

<g fill="none" stroke="#000000" stroke-opacity="1" stroke-width="1" stroke-linecap="square" stroke-linejoin="bevel" transform="matrix(-0.866025,-0.5,0.5,-0.866025,4709.57,1051.72)"
font-family=".SF NS Text" font-size="10" font-weight="400" font-style="normal" 
>
</g>

<g fill="none" stroke="#000000" stroke-opacity="1" stroke-width="1" stroke-linecap="square" stroke-linejoin="bevel" transform="matrix(0.866025,0.5,-0.5,0.866025,4491.41,902.898)"
font-family=".SF NS Text" font-size="10" font-weight="400" font-style="normal" 
>
</g>

<g fill="none" stroke="#ffffff" stroke-opacity="0.501961" stroke-width="1" stroke-linecap="square" stroke-linejoin="bevel" transform="matrix(0.866025,0.5,-0.5,0.866025,4491.41,902.898)"
font-family=".SF NS Text" font-size="10" font-weight="400" font-style="normal" 
>
<path vector-effect="non-scaling-stroke" fill-rule="nonzero" d="M-269.333,-233.333 L134.667,-233.333 L134.667,466.667 L-269.333,-233.333"/>
</g>

<g fill="none" stroke="#000000" stroke-opacity="1" stroke-width="1" stroke-linecap="square" stroke-linejoin="bevel" transform="matrix(0.866025,0.5,-0.5,0.866025,4491.41,902.898)"
font-family=".SF NS Text" font-size="10" font-weight="400" font-style="normal" 
>
</g>

<g fill="none" stroke="#000000" stroke-opacity="1" stroke-width="1" stroke-linecap="square" stroke-linejoin="bevel" transform="matrix(1,0,0,1,0,0)"
font-family=".SF NS Text" font-size="10" font-weight="400" font-style="normal" 
>
</g>
</g>
</svg>
