<svg xmlns="http://www.w3.org/2000/svg" width="4799.99" height="2680" viewBox="0 0 4799.99 2680">
  <title>input2</title>
  <path d="M533.62,1751.92l145.29,82.3-145.36,247,.07-329.31" style="fill: none;stroke: blue;stroke-linecap: square;stroke-linejoin: bevel"/>
  <path d="M513,2122.55l-145.29-82.3,145.36-247L513,2122.55" style="fill: none;stroke: blue;stroke-linecap: square;stroke-linejoin: bevel"/>
  <path d="M358.42,2062.05l191.19,108.3-191.26,325,.07-433.32" style="fill: none;stroke: blue;stroke-linecap: square;stroke-linejoin: bevel"/>
  <path d="M340.09,2009.71,61.34,2167.61l278.8,473.59-.05-631.49" style="fill: none;stroke: blue;stroke-linecap: square;stroke-linejoin: bevel"/>
  <path d="M666.62,2654,387.87,2496.12l278.7-473.6,0,631.49" style="fill: none;stroke: blue;stroke-linecap: square;stroke-linejoin: bevel"/>
  <path d="M949.42,1814.26l-278.75,157.9,278.8,473.59-.05-631.49" style="fill: none;stroke: blue;stroke-linecap: square;stroke-linejoin: bevel"/>
  <path d="M3416.57,1777.59l278.75,157.9-278.7,473.6,0-631.5" style="fill: none;stroke: blue;stroke-linecap: square;stroke-linejoin: bevel"/>
  <path d="M3398.27,2388.46l-193.21-104.67,185.09-328.58,8.12,433.25" style="fill: none;stroke: blue;stroke-linecap: square;stroke-linejoin: bevel"/>
  <path d="M3327.46,2599.28l219.73,2.43-1.94-377-217.79,374.61" style="fill: none;stroke: blue;stroke-linecap: square;stroke-linejoin: bevel"/>
  <path d="M688.75,2483.51l191.33-108.3-191.26-325-.07,433.32" style="fill: none;stroke: blue;stroke-linecap: square;stroke-linejoin: bevel"/>
  <path d="M2850.67,1747.91l-278.75,157.9,278.8,473.59,0-631.49" style="fill: none;stroke: blue;stroke-linecap: square;stroke-linejoin: bevel"/>
  <path d="M2874.17,1831.29l278.75,157.9-278.7,473.6,0-631.5" style="fill: none;stroke: blue;stroke-linecap: square;stroke-linejoin: bevel"/>
  <path d="M972.25,1818.07,1251,1976l-278.7,473.6,0-631.5" style="fill: none;stroke: blue;stroke-linecap: square;stroke-linejoin: bevel"/>
  <path d="M2488.17,2243.12l-145.29-82.3,145.36-247-.07,329.32" style="fill: none;stroke: blue;stroke-linecap: square;stroke-linejoin: bevel"/>
  <path d="M1247.54,2661.62,968.79,2503.73l278.7-473.6,0,631.49" style="fill: none;stroke: blue;stroke-linecap: square;stroke-linejoin: bevel"/>
  <path d="M3199.1,2311.4l145.29,82.3-145.36,247,.07-329.31" style="fill: none;stroke: blue;stroke-linecap: square;stroke-linejoin: bevel"/>
  <path d="M2299,2153.37l191.2,108.3-191.27,325,.07-433.32" style="fill: none;stroke: blue;stroke-linecap: square;stroke-linejoin: bevel"/>
  <path d="M3735.84,2274.75l-145.29-82.3,145.36-247-.07,329.32" style="fill: none;stroke: blue;stroke-linecap: square;stroke-linejoin: bevel"/>
  <path d="M2279.34,2598.41l-278.75-157.89,278.7-473.6.05,631.49" style="fill: none;stroke: blue;stroke-linecap: square;stroke-linejoin: bevel"/>
  <path d="M3570,2216.13l145.29,82.3-145.36,247,.07-329.31" style="fill: none;stroke: blue;stroke-linecap: square;stroke-linejoin: bevel"/>
  <path d="M3197.63,1803.06l191.2,108.3-191.27,325,.07-433.32" style="fill: none;stroke: blue;stroke-linecap: square;stroke-linejoin: bevel"/>
  <path d="M3175.46,2640.24l-278.75-157.89,278.7-473.6.05,631.49" style="fill: none;stroke: blue;stroke-linecap: square;stroke-linejoin: bevel"/>
  <path d="M1940.67,1774l328,185.77L1940.75,2517l-.08-742.95" style="fill: none;stroke: blue;stroke-linecap: square;stroke-linejoin: bevel"/>
  <path d="M2478.3,2648.94,2333,2566.64l145.36-247-.07,329.32" style="fill: none;stroke: blue;stroke-linecap: square;stroke-linejoin: bevel"/>
  <path d="M1464.14,1944.72,1273,2053l191.13,325,.06-433.32" style="fill: none;stroke: blue;stroke-linecap: square;stroke-linejoin: bevel"/>
  <path d="M1269.8,2519l191.33-108.3-191.26-325L1269.8,2519" style="fill: none;stroke: blue;stroke-linecap: square;stroke-linejoin: bevel"/>
  <path d="M2508.58,2597.88l327.8-185.78L2508.5,1854.93l.08,743" style="fill: none;stroke: blue;stroke-linecap: square;stroke-linejoin: bevel"/>
  <path d="M1900.14,2032.54l-278.75,157.9L1900.19,2664l0-631.49" style="fill: none;stroke: blue;stroke-linecap: square;stroke-linejoin: bevel"/>
  <path d="M1826.08,2056.47l-191.33,108.3.07-433.32,191.26,325" style="fill: none;stroke: blue;stroke-linecap: square;stroke-linejoin: bevel"/>
  <path d="M1486.67,2637.49l286-157.9L1486.62,2006l.05,631.49" style="fill: none;stroke: blue;stroke-linecap: square;stroke-linejoin: bevel"/>
  <path d="M1615.19,1741.11,1424,1849.41l191.12,325,.07-433.32" style="fill: none;stroke: blue;stroke-linecap: square;stroke-linejoin: bevel"/>
  <path d="M4370,428.7l349.87,202-350,606.22L4370,428.7" style="fill: none;stroke: blue;stroke-linecap: square;stroke-linejoin: bevel"/>
  <path d="M4793.31,1170.17l-265.87-153.5,266-460.73-.13,614.23" style="fill: none;stroke: blue;stroke-linecap: square;stroke-linejoin: bevel"/>
  <path d="M4341.93,1536.81l-510.09-294.5,510-883.34.09,1177.84" style="fill: none;stroke: blue;stroke-linecap: square;stroke-linejoin: bevel"/>
  <path d="M3809.1,609.33,4075,762.83l-266,460.73.13-614.23" style="fill: none;stroke: blue;stroke-linecap: square;stroke-linejoin: bevel"/>
  <path d="M3777,906.67l-265.87-153.5,266-460.73L3777,906.67" style="fill: none;stroke: blue;stroke-linecap: square;stroke-linejoin: bevel"/>
  <path d="M3450.2,777.43l349.87,202-350,606.22.13-808.22" style="fill: none;stroke: blue;stroke-linecap: square;stroke-linejoin: bevel"/>
  <path d="M3415.9,1664.36l-510.09-294.5,510-883.34.09,1177.84" style="fill: none;stroke: blue;stroke-linecap: square;stroke-linejoin: bevel"/>
  <path d="M2798.94,74.17l600.15,346.5-600,1039.23-.15-1385.73" style="fill: none;stroke: blue;stroke-linecap: square;stroke-linejoin: bevel"/>
  <path d="M2764.94,748.94l-265.87-153.5,266-460.73-.13,614.23" style="fill: none;stroke: blue;stroke-linecap: square;stroke-linejoin: bevel"/>
  <path d="M2214.12,542.27l510.09,294.5-510,883.35-.09-1177.85" style="fill: none;stroke: blue;stroke-linecap: square;stroke-linejoin: bevel"/>
  <path d="M2175.45,750.65l-349.87,202,349.75,606.22.12-808.22" style="fill: none;stroke: blue;stroke-linecap: square;stroke-linejoin: bevel"/>
  <path d="M1741.05,808.21l350.12-202L1741.17,0l-.12,808.21" style="fill: none;stroke: blue;stroke-linecap: square;stroke-linejoin: bevel"/>
  <path d="M1708.59,183l-266.87,153.5,265.74,460.72L1708.59,183" style="fill: none;stroke: blue;stroke-linecap: square;stroke-linejoin: bevel"/>
  <path d="M1341.13,1613.78,1941,1267.28,1341,228.05l.16,1385.73" style="fill: none;stroke: blue;stroke-linecap: square;stroke-linejoin: bevel"/>
  <path d="M1301.6,52.9,791.51,347.4l510.18,883.34L1301.6,52.9" style="fill: none;stroke: blue;stroke-linecap: square;stroke-linejoin: bevel"/>
  <path d="M1325.84,1460.17l-350.12,202L975.84,854l350,606.22" style="fill: none;stroke: blue;stroke-linecap: square;stroke-linejoin: bevel"/>
  <path d="M947.88,722.44,682,875.94l265.74,460.73.13-614.23" style="fill: none;stroke: blue;stroke-linecap: square;stroke-linejoin: bevel"/>
  <path d="M363.24,1576l523.41-294.51L363.15,398.1,363.24,1576" style="fill: none;stroke: blue;stroke-linecap: square;stroke-linejoin: bevel"/>
  <path d="M349.87,556,0,758l349.74,606.22L349.87,556" style="fill: none;stroke: blue;stroke-linecap: square;stroke-linejoin: bevel"/>
</svg>
