<?xml version="1.0" encoding="utf-8"?>
<!-- Generator: Adobe Illustrator 19.1.0, SVG Export Plug-In . SVG Version: 6.00 Build 0)  -->
<svg version="1.1" id="Layer_1" xmlns="http://www.w3.org/2000/svg" xmlns:xlink="http://www.w3.org/1999/xlink" x="0px" y="0px"
	 viewBox="2694 -354 6000 1500" style="enable-background:new 2694 -354 6000 1500;" xml:space="preserve">
<style type="text/css">
	.st0{fill:none;stroke:#FFFFFF;stroke-linecap:square;stroke-linejoin:bevel;stroke-opacity:0.502;}
</style>
<title>MadMapper SVG export</title>
<desc>MadMapper SVG export</desc>
<g>
	<g transform="matrix(1,0,0,1,0,0)">
	</g>
	<g transform="matrix(1,0,0,1,0,0)">
	</g>
	<g transform="matrix(1,0,0,1,0,0)">
	</g>
	<g transform="matrix(1,0,0,1,0,0)">
	</g>
	<g transform="matrix(1,0,0,1,0,0)">
	</g>
	<g transform="matrix(1,0,0,1,142.76,1335.45)">
	</g>
	<g transform="matrix(1,0,0,1,142.76,1335.45)">
		<path vector-effect="non-scaling-stroke" class="st0" d="M2695.4-189.7l-143.9-243.4l283.6,0L2695.4-189.7"/>
	</g>
	<g transform="matrix(1,0,0,1,142.76,1335.45)">
	</g>
	<g transform="matrix(0.98759,0,0,0.98759,142.242,1172.41)">
	</g>
	<g transform="matrix(0.98759,0,0,0.98759,142.242,1172.41)">
		<path vector-effect="non-scaling-stroke" class="st0" d="M2871.3-273.5l-287.2,0l144.2-248.8L2871.3-273.5"/>
	</g>
	<g transform="matrix(0.98759,0,0,0.98759,142.242,1172.41)">
	</g>
	<g transform="matrix(0.98759,0,0,0.98759,283.758,1091.14)">
	</g>
	<g transform="matrix(0.98759,0,0,0.98759,283.758,1091.14)">
		<path vector-effect="non-scaling-stroke" class="st0" d="M2728-191.2l-143-248.8l285.7,2L2728-191.2"/>
	</g>
	<g transform="matrix(0.98759,0,0,0.98759,283.758,1091.14)">
	</g>
	<g transform="matrix(0.98759,0,0,0.98759,822.493,1106.63)">
	</g>
	<g transform="matrix(0.98759,0,0,0.98759,822.493,1106.63)">
		<path vector-effect="non-scaling-stroke" class="st0" d="M2728,41.1l344-596.7l-688.5,0.9L2728,41.1"/>
	</g>
	<g transform="matrix(0.98759,0,0,0.98759,822.493,1106.63)">
	</g>
	<g transform="matrix(0.98759,0,0,0.98759,1020.96,828.508)">
	</g>
	<g transform="matrix(0.98759,0,0,0.98759,1020.96,828.508)">
		<path vector-effect="non-scaling-stroke" class="st0" d="M2727.9-521.3L2871.1-274l-286.4,0.1L2727.9-521.3"/>
	</g>
	<g transform="matrix(0.98759,0,0,0.98759,1020.96,828.508)">
	</g>
	<g transform="matrix(0.98759,0,0,0.98759,1162.59,746.998)">
	</g>
	<g transform="matrix(0.98759,0,0,0.98759,1162.59,746.998)">
		<path vector-effect="non-scaling-stroke" class="st0" d="M2871.4-439l-143.8,247.5l-143.2-247.3L2871.4-439"/>
	</g>
	<g transform="matrix(0.98759,0,0,0.98759,1162.59,746.998)">
	</g>
	<g transform="matrix(0.98759,0,0,0.98759,1345.82,986.972)">
	</g>
	<g transform="matrix(0.98759,0,0,0.98759,1345.82,986.972)">
		<path vector-effect="non-scaling-stroke" class="st0" d="M3072-157.9l-688.5,0.3L2728-753.8L3072-157.9"/>
	</g>
	<g transform="matrix(0.98759,0,0,0.98759,1345.82,986.972)">
	</g>
	<g transform="matrix(0.98759,0,0,0.98759,1005.53,1346.79)">
	</g>
	<g transform="matrix(0.98759,0,0,0.98759,1005.53,1346.79)">
		<path vector-effect="non-scaling-stroke" class="st0" d="M2871.5-273.8L2728.1-522l-144.1,248.5L2871.5-273.8"/>
	</g>
	<g transform="matrix(0.98759,0,0,0.98759,1005.53,1346.79)">
	</g>
	<g transform="matrix(0.98759,0,0,0.98759,1147.17,1265.1)">
	</g>
	<g transform="matrix(0.98759,0,0,0.98759,1147.17,1265.1)">
		<path vector-effect="non-scaling-stroke" class="st0" d="M2728.1-191.1l-143.5-248.1l286.1,0.3L2728.1-191.1"/>
	</g>
	<g transform="matrix(0.98759,0,0,0.98759,1147.17,1265.1)">
	</g>
	<g transform="matrix(0.98759,0,0,0.98759,1288.92,1347.05)">
	</g>
	<g transform="matrix(0.98759,0,0,0.98759,1288.92,1347.05)">
		<path vector-effect="non-scaling-stroke" class="st0" d="M2584.6-274.1l287.1,0.8l-144.5-248.6L2584.6-274.1"/>
	</g>
	<g transform="matrix(0.98759,0,0,0.98759,1288.92,1347.05)">
	</g>
	<g transform="matrix(0.98759,0,0,0.98759,1430.48,1265.46)">
	</g>
	<g transform="matrix(0.98759,0,0,0.98759,1430.48,1265.46)">
		<path vector-effect="non-scaling-stroke" class="st0" d="M2871.3-439.3l-142.9,248.6l-144.5-248.6L2871.3-439.3"/>
	</g>
	<g transform="matrix(0.98759,0,0,0.98759,1430.48,1265.46)">
	</g>
	<g transform="matrix(0.98759,0,0,0.98759,1486.03,677.307)">
	</g>
	<g transform="matrix(0.98759,0,0,0.98759,1486.03,677.307)">
		<path vector-effect="non-scaling-stroke" class="st0" d="M2868.3-436.7l-282.3-3.6l143.2,247.9L2868.3-436.7"/>
	</g>
	<g transform="matrix(0.98759,0,0,0.98759,1486.03,677.307)">
	</g>
	<g transform="matrix(0.98759,0,0,0.98759,482.504,1303.16)">
	</g>
	<g transform="matrix(0.98759,0,0,0.98759,482.504,1303.16)">
		<path vector-effect="non-scaling-stroke" class="st0" d="M3072.3-157.9l-688.8,0.3l344.3-596.1L3072.3-157.9"/>
	</g>
	<g transform="matrix(0.98759,0,0,0.98759,482.504,1303.16)">
	</g>
	<g transform="matrix(0.98759,0,0,0.98759,2084.6,442.438)">
	</g>
	<g transform="matrix(0.98759,0,0,0.98759,2084.6,442.438)">
		<path vector-effect="non-scaling-stroke" class="st0" d="M3073.1-555.8l-690.2,0.4l344.7,597.2L3073.1-555.8"/>
	</g>
	<g transform="matrix(0.98759,0,0,0.98759,2084.6,442.438)">
	</g>
	<g transform="matrix(0.98759,0,0,0.98759,2283.4,163.994)">
	</g>
	<g transform="matrix(0.98759,0,0,0.98759,2283.4,163.994)">
		<path vector-effect="non-scaling-stroke" class="st0" d="M2871.8-273.8l-287.7-0.2l143.5-247.5L2871.8-273.8"/>
	</g>
	<g transform="matrix(0.98759,0,0,0.98759,2283.4,163.994)">
	</g>
	<g transform="matrix(0.98759,0,0,0.98759,2424.76,82.6007)">
	</g>
	<g transform="matrix(0.98759,0,0,0.98759,2424.76,82.6007)">
		<path vector-effect="non-scaling-stroke" class="st0" d="M2728.7-191.4l141.7-247.4l-285.9-0.2L2728.7-191.4"/>
	</g>
	<g transform="matrix(0.98759,0,0,0.98759,2424.76,82.6007)">
	</g>
	<g transform="matrix(0.98759,0,0,0.98759,2495.74,287.3)">
	</g>
	<g transform="matrix(0.98759,0,0,0.98759,2495.74,287.3)">
		<path vector-effect="non-scaling-stroke" class="st0" d="M2584.5-273.3l286.6-0.5l-143.2-248.2L2584.5-273.3"/>
	</g>
	<g transform="matrix(0.98759,0,0,0.98759,2495.74,287.3)">
	</g>
	<g transform="matrix(0.98759,0,0,0.98759,2495.67,450.939)">
	</g>
	<g transform="matrix(0.98759,0,0,0.98759,2495.67,450.939)">
		<path vector-effect="non-scaling-stroke" class="st0" d="M2584.6-439l286.6-0.5l-143.4,248.9L2584.6-439"/>
	</g>
	<g transform="matrix(0.98759,0,0,0.98759,2495.67,450.939)">
	</g>
	<g transform="matrix(0.98759,0,0,0.98759,2354.02,532.815)">
	</g>
	<g transform="matrix(0.98759,0,0,0.98759,2354.02,532.815)">
		<path vector-effect="non-scaling-stroke" class="st0" d="M2728-521.9l-143.7,248.2l286.9,0.2L2728-521.9"/>
	</g>
	<g transform="matrix(0.98759,0,0,0.98759,2354.02,532.815)">
	</g>
	<g transform="matrix(0.98759,0,0,0.98759,2822.64,320.978)">
	</g>
	<g transform="matrix(0.98759,0,0,0.98759,2822.64,320.978)">
		<path vector-effect="non-scaling-stroke" class="st0" d="M2584.5-439.2l286.6,0.1l-143.1,248L2584.5-439.2"/>
	</g>
	<g transform="matrix(0.98759,0,0,0.98759,2822.64,320.978)">
	</g>
	<g transform="matrix(0.98759,0,0,0.98759,2964.21,402.67)">
	</g>
	<g transform="matrix(0.98759,0,0,0.98759,2964.21,402.67)">
		<path vector-effect="non-scaling-stroke" class="st0" d="M2871.2-273.8l-143.5-248l-143.1,248L2871.2-273.8"/>
	</g>
	<g transform="matrix(0.98759,0,0,0.98759,2964.21,402.67)">
	</g>
	<g transform="matrix(0.98759,0,0,0.98759,3141.13,382.033)">
	</g>
	<g transform="matrix(0.98759,0,0,0.98759,3141.13,382.033)">
		<path vector-effect="non-scaling-stroke" class="st0" d="M2728-190.6l-143.9-248.9l287.3,0.2L2728-190.6"/>
	</g>
	<g transform="matrix(0.98759,0,0,0.98759,3141.13,382.033)">
	</g>
	<g transform="matrix(0.98759,0,0,0.98759,3141.13,218.391)">
	</g>
	<g transform="matrix(0.98759,0,0,0.98759,3141.13,218.391)">
		<path vector-effect="non-scaling-stroke" class="st0" d="M2728-522l-143.9,248.2l287.3,0.2L2728-522"/>
	</g>
	<g transform="matrix(0.98759,0,0,0.98759,3141.13,218.391)">
	</g>
	<g transform="matrix(0.98759,0,0,0.98759,2999.63,136.774)">
	</g>
	<g transform="matrix(0.98759,0,0,0.98759,2999.63,136.774)">
		<path vector-effect="non-scaling-stroke" class="st0" d="M2871.3-439.3l-143.9,248.2l-142.5-247.7L2871.3-439.3"/>
	</g>
	<g transform="matrix(0.98759,0,0,0.98759,2999.63,136.774)">
	</g>
	<g transform="matrix(0.98759,0,0,0.98759,3472.68,258.293)">
	</g>
	<g transform="matrix(0.98759,0,0,0.98759,3472.68,258.293)">
		<path vector-effect="non-scaling-stroke" class="st0" d="M2871.6-439.1l-143.9,247.8l-143.5-247.5L2871.6-439.1"/>
	</g>
	<g transform="matrix(0.98759,0,0,0.98759,3472.68,258.293)">
	</g>
	<g transform="matrix(0.98759,0,0,0.98759,3670.61,470.809)">
	</g>
	<g transform="matrix(0.98759,0,0,0.98759,3670.61,470.809)">
		<path vector-effect="non-scaling-stroke" class="st0" d="M3072.7-157.7l-689.4-0.1l344.3-595.9L3072.7-157.7"/>
	</g>
	<g transform="matrix(0.98759,0,0,0.98759,3670.61,470.809)">
	</g>
	<g transform="matrix(0.98759,0,0,0.98759,3965.4,424.283)">
	</g>
	<g transform="matrix(0.98759,0,0,0.98759,3965.4,424.283)">
		<path vector-effect="non-scaling-stroke" class="st0" d="M2871.6-440.1L2728-190.4l-144.1-248.5L2871.6-440.1"/>
	</g>
	<g transform="matrix(0.98759,0,0,0.98759,3965.4,424.283)">
	</g>
	<g transform="matrix(0.98759,0,0,0.98759,4107.5,505.885)">
	</g>
	<g transform="matrix(0.98759,0,0,0.98759,4107.5,505.885)">
		<path vector-effect="non-scaling-stroke" class="st0" d="M2727.7-522.7L2584.2-273l287.6-0.6L2727.7-522.7"/>
	</g>
	<g transform="matrix(0.98759,0,0,0.98759,4107.5,505.885)">
	</g>
	<g transform="matrix(0.98759,0,0,0.98759,4843.15,705.563)">
	</g>
	<g transform="matrix(0.98759,0,0,0.98759,4843.15,705.563)">
		<path vector-effect="non-scaling-stroke" class="st0" d="M3072.2-555.1l-688.7-0.4l344.2,596.9L3072.2-555.1"/>
	</g>
	<g transform="matrix(0.98759,0,0,0.98759,4843.15,705.563)">
	</g>
	<g transform="matrix(0.98759,0,0,0.98759,4701.5,1016.61)">
	</g>
	<g transform="matrix(0.98759,0,0,0.98759,4701.5,1016.61)">
		<path vector-effect="non-scaling-stroke" class="st0" d="M2727.4-521.7L2585-274l286.2,0.4L2727.4-521.7"/>
	</g>
	<g transform="matrix(0.98759,0,0,0.98759,4701.5,1016.61)">
	</g>
	<g transform="matrix(0.98759,0,0,0.98759,4560.14,1261.66)">
	</g>
	<g transform="matrix(0.98759,0,0,0.98759,4560.14,1261.66)">
		<path vector-effect="non-scaling-stroke" class="st0" d="M2728.1-522.1l-144.4,248.6l288,0L2728.1-522.1"/>
	</g>
	<g transform="matrix(0.98759,0,0,0.98759,4560.14,1261.66)">
	</g>
	<g transform="matrix(0.98759,0,0,0.98759,4701.9,1179.97)">
	</g>
	<g transform="matrix(0.98759,0,0,0.98759,4701.9,1179.97)">
		<path vector-effect="non-scaling-stroke" class="st0" d="M2728.2-190.9l-143.6-248.5l286.2,0.4L2728.2-190.9"/>
	</g>
	<g transform="matrix(0.98759,0,0,0.98759,4701.9,1179.97)">
	</g>
	<g transform="matrix(0.98759,0,0,0.98759,4528.16,989.61)">
	</g>
	<g transform="matrix(0.98759,0,0,0.98759,4528.16,989.61)">
		<path vector-effect="non-scaling-stroke" class="st0" d="M2728.1-190.8l-143.2-248.5l285.6,0.2L2728.1-190.8"/>
	</g>
	<g transform="matrix(0.98759,0,0,0.98759,4528.16,989.61)">
	</g>
	<g transform="matrix(0.98759,0,0,0.98759,5001.43,1217.19)">
	</g>
	<g transform="matrix(0.98759,0,0,0.98759,5001.43,1217.19)">
		<path vector-effect="non-scaling-stroke" class="st0" d="M3071.2-157.6l-687.1,0.5l344.2-597.4L3071.2-157.6"/>
	</g>
	<g transform="matrix(0.98759,0,0,0.98759,5001.43,1217.19)">
	</g>
	<g transform="matrix(0.98759,0,0,0.98759,5341.11,1021.19)">
	</g>
	<g transform="matrix(0.98759,0,0,0.98759,5341.11,1021.19)">
		<path vector-effect="non-scaling-stroke" class="st0" d="M3072-554.1l-687.7-2l343,596.8L3072-554.1"/>
	</g>
	<g transform="matrix(0.98759,0,0,0.98759,5341.11,1021.19)">
	</g>
	<g transform="matrix(0.98759,0,0,0.98759,5143.42,742.59)">
	</g>
	<g transform="matrix(0.98759,0,0,0.98759,5143.42,742.59)">
		<path vector-effect="non-scaling-stroke" class="st0" d="M2727.7-522.2l-143.3,248.2l286.8,0.7L2727.7-522.2"/>
	</g>
	<g transform="matrix(0.98759,0,0,0.98759,5143.42,742.59)">
	</g>
	<g transform="matrix(0.98759,0,0,0.98759,5426.11,743.506)">
	</g>
	<g transform="matrix(0.98759,0,0,0.98759,5426.11,743.506)">
		<path vector-effect="non-scaling-stroke" class="st0" d="M2727.7-521.7l-142.6,247.6l285.6,0.7L2727.7-521.7"/>
	</g>
	<g transform="matrix(0.98759,0,0,0.98759,5426.11,743.506)">
	</g>
	<g transform="matrix(0.98759,0,0,0.98759,5284.81,661.311)">
	</g>
	<g transform="matrix(0.98759,0,0,0.98759,5284.81,661.311)">
		<path vector-effect="non-scaling-stroke" class="st0" d="M2870.8-438.5l-142.7,247.6l-143.6-249L2870.8-438.5"/>
	</g>
	<g transform="matrix(0.98759,0,0,0.98759,5284.81,661.311)">
	</g>
	<g transform="matrix(0.98759,0,0,0.98759,5823.07,907.013)">
	</g>
	<g transform="matrix(0.98759,0,0,0.98759,5823.07,907.013)">
		<path vector-effect="non-scaling-stroke" class="st0" d="M2871.4-440.1l-143.3,249.4L2584-438.4L2871.4-440.1"/>
	</g>
	<g transform="matrix(0.98759,0,0,0.98759,5823.07,907.013)">
	</g>
	<g transform="matrix(0.98759,0,0,0.98759,5681.33,1152.61)">
	</g>
	<g transform="matrix(0.98759,0,0,0.98759,5681.33,1152.61)">
		<path vector-effect="non-scaling-stroke" class="st0" d="M2871.7-439.4l-143.9,248l-143.7-247.1L2871.7-439.4"/>
	</g>
	<g transform="matrix(0.98759,0,0,0.98759,5681.33,1152.61)">
	</g>
	<g transform="matrix(0.98759,0,0,0.98759,5681.22,989.411)">
	</g>
	<g transform="matrix(0.98759,0,0,0.98759,5681.22,989.411)">
		<path vector-effect="non-scaling-stroke" class="st0" d="M2584.2-273.3l287.6-0.9l-144.2-247.8L2584.2-273.3"/>
	</g>
	<g transform="matrix(0.98759,0,0,0.98759,5681.22,989.411)">
	</g>
	<g transform="matrix(0.98759,0,0,0.98759,5539.44,1234.03)">
	</g>
	<g transform="matrix(0.98759,0,0,0.98759,5539.44,1234.03)">
		<path vector-effect="non-scaling-stroke" class="st0" d="M2584.3-274.5l287.1,0.6L2727.7-521L2584.3-274.5"/>
	</g>
	<g transform="matrix(0.98759,0,0,0.98759,5539.44,1234.03)">
	</g>
	<g transform="matrix(0.98759,0,0,0.98759,5857.59,1173.31)">
	</g>
	<g transform="matrix(0.98759,0,0,0.98759,5857.59,1173.31)">
		<path vector-effect="non-scaling-stroke" class="st0" d="M2585.4-274.5l284.6,0.6l-141.7-247L2585.4-274.5"/>
	</g>
	<g transform="matrix(0.98759,0,0,0.98759,5857.59,1173.31)">
	</g>
	<g transform="matrix(0.98759,0,0,0.98759,3071.31,987.067)">
	</g>
	<g transform="matrix(0.98759,0,0,0.98759,3071.31,987.067)">
		<path vector-effect="non-scaling-stroke" class="st0" d="M2727.8-522.4l-143.3,248.8l286.6,0.3L2727.8-522.4"/>
	</g>
	<g transform="matrix(0.98759,0,0,0.98759,3071.31,987.067)">
	</g>
	<g transform="matrix(0.98759,0,0,0.98759,3071.3,1150.59)">
	</g>
	<g transform="matrix(0.98759,0,0,0.98759,3071.3,1150.59)">
		<path vector-effect="non-scaling-stroke" class="st0" d="M2727.8-191.2l-143.2-248l286.6,0.3L2727.8-191.2"/>
	</g>
	<g transform="matrix(0.98759,0,0,0.98759,3071.3,1150.59)">
	</g>
	<g transform="matrix(0.98759,0,0,0.98759,2894.16,1171.23)">
	</g>
	<g transform="matrix(0.98759,0,0,0.98759,2894.16,1171.23)">
		<path vector-effect="non-scaling-stroke" class="st0" d="M2727.8-522l-143.3,248.1l286.6,0.5L2727.8-522"/>
	</g>
	<g transform="matrix(0.98759,0,0,0.98759,2894.16,1171.23)">
	</g>
	<g transform="matrix(0.98759,0,0,0.98759,2894.26,1334.96)">
	</g>
	<g transform="matrix(0.98759,0,0,0.98759,2894.26,1334.96)">
		<path vector-effect="non-scaling-stroke" class="st0" d="M2728-190.4l-143.6-249.3l286.6,0.5L2728-190.4"/>
	</g>
	<g transform="matrix(0.98759,0,0,0.98759,2894.26,1334.96)">
	</g>
	<g transform="matrix(0.98759,0,0,0.98759,3036.05,1416.96)">
	</g>
	<g transform="matrix(0.98759,0,0,0.98759,3036.05,1416.96)">
		<path vector-effect="non-scaling-stroke" class="st0" d="M2727.5-522.2l-143,248.8l287.1-0.2L2727.5-522.2"/>
	</g>
	<g transform="matrix(0.98759,0,0,0.98759,3036.05,1416.96)">
	</g>
	<g transform="matrix(0.98759,0,0,0.98759,2427.82,1333.91)">
	</g>
	<g transform="matrix(0.98759,0,0,0.98759,2427.82,1333.91)">
		<path vector-effect="non-scaling-stroke" class="st0" d="M2728-191.2l-143.4-248.1l286.4,0.6L2728-191.2"/>
	</g>
	<g transform="matrix(0.98759,0,0,0.98759,2427.82,1333.91)">
	</g>
	<g transform="matrix(0.98759,0,0,0.98759,2286.44,1415.37)">
	</g>
	<g transform="matrix(0.98759,0,0,0.98759,2286.44,1415.37)">
		<path vector-effect="non-scaling-stroke" class="st0" d="M2871.1-273.7l-143.4-248.1l-143,248L2871.1-273.7"/>
	</g>
	<g transform="matrix(0.98759,0,0,0.98759,2286.44,1415.37)">
	</g>
	<g transform="matrix(0.98759,0,0,0.98759,2569.53,1415.74)">
	</g>
	<g transform="matrix(0.98759,0,0,0.98759,2569.53,1415.74)">
		<path vector-effect="non-scaling-stroke" class="st0" d="M2584.5-274l287.1,0.4l-144-248L2584.5-274"/>
	</g>
	<g transform="matrix(0.98759,0,0,0.98759,2569.53,1415.74)">
	</g>
	<g transform="matrix(0.98759,0,0,0.98759,2427.75,1170.61)">
	</g>
	<g transform="matrix(0.98759,0,0,0.98759,2427.75,1170.61)">
		<path vector-effect="non-scaling-stroke" class="st0" d="M2727.9-521.9L2584.6-274l286.4,0.6L2727.9-521.9"/>
	</g>
	<g transform="matrix(0.98759,0,0,0.98759,2427.75,1170.61)">
	</g>
	<g transform="matrix(0.98759,0,0,0.98759,2357.25,965.884)">
	</g>
	<g transform="matrix(0.98759,0,0,0.98759,2357.25,965.884)">
		<path vector-effect="non-scaling-stroke" class="st0" d="M2728.2-191.1l-143.9-248L2871-439L2728.2-191.1"/>
	</g>
	<g transform="matrix(0.98759,0,0,0.98759,2357.25,965.884)">
	</g>
	<g transform="matrix(0.98759,0,0,0.98759,2357.21,802.273)">
	</g>
	<g transform="matrix(0.98759,0,0,0.98759,2357.21,802.273)">
		<path vector-effect="non-scaling-stroke" class="st0" d="M2728.2-522.5l-143.8,249l286.6,0.1L2728.2-522.5"/>
	</g>
	<g transform="matrix(0.98759,0,0,0.98759,2357.21,802.273)">
	</g>
	<g transform="matrix(0.98759,0,0,0.98759,2215.54,1047.6)">
	</g>
	<g transform="matrix(0.98759,0,0,0.98759,2215.54,1047.6)">
		<path vector-effect="non-scaling-stroke" class="st0" d="M2871.7-273.9l-143.9-248L2584-273.5L2871.7-273.9"/>
	</g>
	<g transform="matrix(0.98759,0,0,0.98759,2215.54,1047.6)">
	</g>
	<g transform="matrix(0.98759,0,0,0.98759,2215.52,1211.15)">
	</g>
	<g transform="matrix(0.98759,0,0,0.98759,2215.52,1211.15)">
		<path vector-effect="non-scaling-stroke" class="st0" d="M2871.7-439.5l-144,248.8L2584-439.1L2871.7-439.5"/>
	</g>
	<g transform="matrix(0.98759,0,0,0.98759,2215.52,1211.15)">
	</g>
	<g transform="matrix(0.98759,0,0,0.98759,3621.19,1334.78)">
	</g>
	<g transform="matrix(0.98759,0,0,0.98759,3621.19,1334.78)">
		<path vector-effect="non-scaling-stroke" class="st0" d="M2728.1-190.2l-143.8-249l286.7-0.5L2728.1-190.2"/>
	</g>
	<g transform="matrix(0.98759,0,0,0.98759,3621.19,1334.78)">
	</g>
	<g transform="matrix(0.98759,0,0,0.98759,3763.06,1416.77)">
	</g>
	<g transform="matrix(0.98759,0,0,0.98759,3763.06,1416.77)">
		<path vector-effect="non-scaling-stroke" class="st0" d="M2584.5-273.3l287.2,0.1l-144.3-249.6L2584.5-273.3"/>
	</g>
	<g transform="matrix(0.98759,0,0,0.98759,3763.06,1416.77)">
	</g>
	<g transform="matrix(0.98759,0,0,0.98759,3479.2,1417.07)">
	</g>
	<g transform="matrix(0.98759,0,0,0.98759,3479.2,1417.07)">
		<path vector-effect="non-scaling-stroke" class="st0" d="M2871.9-273.6l-143.8-249l-144.6,249.4L2871.9-273.6"/>
	</g>
	<g transform="matrix(0.98759,0,0,0.98759,3479.2,1417.07)">
	</g>
	<g transform="matrix(0.98759,0,0,0.98759,3620.89,1170.95)">
	</g>
	<g transform="matrix(0.98759,0,0,0.98759,3620.89,1170.95)">
		<path vector-effect="non-scaling-stroke" class="st0" d="M2727.5-522l-142.9,248.6l286.7-0.5L2727.5-522"/>
	</g>
	<g transform="matrix(0.98759,0,0,0.98759,3620.89,1170.95)">
	</g>
	<g transform="matrix(0.98759,0,0,0.98759,3762.68,1089.15)">
	</g>
	<g transform="matrix(0.98759,0,0,0.98759,3762.68,1089.15)">
		<path vector-effect="non-scaling-stroke" class="st0" d="M2727.8-191.1L2584-439.2l287.9,0.1L2727.8-191.1"/>
	</g>
	<g transform="matrix(0.98759,0,0,0.98759,3762.68,1089.15)">
	</g>
	<g transform="matrix(0.98759,0,0,0.98759,3762.63,926.07)">
	</g>
	<g transform="matrix(0.98759,0,0,0.98759,3762.63,926.07)">
		<path vector-effect="non-scaling-stroke" class="st0" d="M2727.7-521.3L2584-274l287.9,0.1L2727.7-521.3"/>
	</g>
	<g transform="matrix(0.98759,0,0,0.98759,3762.63,926.07)">
	</g>
	<g transform="matrix(0.98759,0,0,0.98759,3514.35,1028.21)">
	</g>
	<g transform="matrix(0.98759,0,0,0.98759,3514.35,1028.21)">
		<path vector-effect="non-scaling-stroke" class="st0" d="M2728-190.3l-143.7-249.2l287,0.1L2728-190.3"/>
	</g>
	<g transform="matrix(0.98759,0,0,0.98759,3514.35,1028.21)">
	</g>
	<g transform="matrix(1,0,0,1,0,0)">
	</g>
</g>
</svg>
