<?xml version="1.0" encoding="UTF-8" standalone="no"?>
<svg width="1080px" height="1920px"
 viewBox="0 0 1080 1920"
 xmlns="http://www.w3.org/2000/svg" xmlns:xlink="http://www.w3.org/1999/xlink"  version="1.2" baseProfile="tiny">
<title>MadMapper SVG export</title>
<desc>MadMapper SVG export</desc>
<defs>
</defs>
<g fill="none" stroke="black" stroke-width="1" fill-rule="evenodd" stroke-linecap="square" stroke-linejoin="bevel" >

<g fill="none" stroke="#000000" stroke-opacity="1" stroke-width="1" stroke-linecap="square" stroke-linejoin="bevel" transform="matrix(1,0,0,1,0,0)"
font-family=".SF NS Text" font-size="10" font-weight="400" font-style="normal"
>
</g>

<g fill="none" stroke="#000000" stroke-opacity="1" stroke-width="1" stroke-linecap="square" stroke-linejoin="bevel" transform="matrix(1,0,0,1,0,0)"
font-family=".SF NS Text" font-size="10" font-weight="400" font-style="normal"
>
</g>

<g fill="none" stroke="#ffffff" stroke-opacity="1" stroke-width="1" stroke-linecap="square" stroke-linejoin="bevel" transform="matrix(1,0,0,1,0,0)"
font-family=".SF NS Text" font-size="10" font-weight="400" font-style="normal"
>
<rect vector-effect="non-scaling-stroke" x="0" y="0" width="1080" height="1920"/>
</g>

<g fill="none" stroke="#000000" stroke-opacity="1" stroke-width="1" stroke-linecap="square" stroke-linejoin="bevel" transform="matrix(1,0,0,1,0,0)"
font-family=".SF NS Text" font-size="10" font-weight="400" font-style="normal"
>
</g>

<g fill="none" stroke="#000000" stroke-opacity="1" stroke-width="1" stroke-linecap="square" stroke-linejoin="bevel" transform="matrix(1,0,0,1,0,0)"
font-family=".SF NS Text" font-size="10" font-weight="400" font-style="normal"
>
</g>

<g fill="none" stroke="#000000" stroke-opacity="0" stroke-width="1" stroke-linecap="square" stroke-linejoin="bevel" transform="matrix(1,0,0,1,0,0)"
font-family=".SF NS Text" font-size="10" font-weight="400" font-style="normal"
>
<polyline fill="none" vector-effect="none" points="0,0 100,100 " />
</g>

<g fill="none" stroke="#000000" stroke-opacity="1" stroke-width="1" stroke-linecap="square" stroke-linejoin="bevel" transform="matrix(1,0,0,1,0,0)"
font-family=".SF NS Text" font-size="10" font-weight="400" font-style="normal"
>
</g>

<g fill="none" stroke="#000000" stroke-opacity="1" stroke-width="1" stroke-linecap="square" stroke-linejoin="bevel" transform="matrix(-0.5,0.866025,-0.866025,-0.5,188.927,919.678)"
font-family=".SF NS Text" font-size="10" font-weight="400" font-style="normal"
>
</g>

<g fill="none" stroke="#ffffff" stroke-opacity="0.501961" stroke-width="1" stroke-linecap="square" stroke-linejoin="bevel" transform="matrix(-0.5,0.866025,-0.866025,-0.5,188.927,919.678)"
font-family=".SF NS Text" font-size="10" font-weight="400" font-style="normal"
>
<path vector-effect="non-scaling-stroke" fill-rule="evenodd" d="M-144,2.5 L144,2.5 L144,-2.5 L-144,-2.5 L-144,2.5"/>
</g>

<g fill="none" stroke="#000000" stroke-opacity="1" stroke-width="1" stroke-linecap="square" stroke-linejoin="bevel" transform="matrix(-0.5,0.866025,-0.866025,-0.5,188.927,919.678)"
font-family=".SF NS Text" font-size="10" font-weight="400" font-style="normal"
>
</g>

<g fill="none" stroke="#000000" stroke-opacity="1" stroke-width="1" stroke-linecap="square" stroke-linejoin="bevel" transform="matrix(0.5,0.866025,-0.866025,0.5,58.5972,950.855)"
font-family=".SF NS Text" font-size="10" font-weight="400" font-style="normal"
>
</g>

<g fill="none" stroke="#ffffff" stroke-opacity="0.501961" stroke-width="1" stroke-linecap="square" stroke-linejoin="bevel" transform="matrix(0.5,0.866025,-0.866025,0.5,58.5972,950.855)"
font-family=".SF NS Text" font-size="10" font-weight="400" font-style="normal"
>
<path vector-effect="non-scaling-stroke" fill-rule="evenodd" d="M-108,2.5 L108,2.5 L108,-2.5 L-108,-2.5 L-108,2.5"/>
</g>

<g fill="none" stroke="#000000" stroke-opacity="1" stroke-width="1" stroke-linecap="square" stroke-linejoin="bevel" transform="matrix(0.5,0.866025,-0.866025,0.5,58.5972,950.855)"
font-family=".SF NS Text" font-size="10" font-weight="400" font-style="normal"
>
</g>

<g fill="none" stroke="#000000" stroke-opacity="1" stroke-width="1" stroke-linecap="square" stroke-linejoin="bevel" transform="matrix(0.5,0.866025,-0.866025,0.5,603.564,492.419)"
font-family=".SF NS Text" font-size="10" font-weight="400" font-style="normal"
>
</g>

<g fill="none" stroke="#ffffff" stroke-opacity="0.501961" stroke-width="1" stroke-linecap="square" stroke-linejoin="bevel" transform="matrix(0.5,0.866025,-0.866025,0.5,603.564,492.419)"
font-family=".SF NS Text" font-size="10" font-weight="400" font-style="normal"
>
<path vector-effect="non-scaling-stroke" fill-rule="evenodd" d="M-180,2.5 L180,2.5 L180,-2.5 L-180,-2.5 L-180,2.5"/>
</g>

<g fill="none" stroke="#000000" stroke-opacity="1" stroke-width="1" stroke-linecap="square" stroke-linejoin="bevel" transform="matrix(0.5,0.866025,-0.866025,0.5,603.564,492.419)"
font-family=".SF NS Text" font-size="10" font-weight="400" font-style="normal"
>
</g>

<g fill="none" stroke="#000000" stroke-opacity="1" stroke-width="1" stroke-linecap="square" stroke-linejoin="bevel" transform="matrix(0.5,0.866025,-0.866025,0.5,566.284,503.157)"
font-family=".SF NS Text" font-size="10" font-weight="400" font-style="normal"
>
</g>

<g fill="none" stroke="#ffffff" stroke-opacity="0.501961" stroke-width="1" stroke-linecap="square" stroke-linejoin="bevel" transform="matrix(0.5,0.866025,-0.866025,0.5,566.284,503.157)"
font-family=".SF NS Text" font-size="10" font-weight="400" font-style="normal"
>
<path vector-effect="non-scaling-stroke" fill-rule="evenodd" d="M-36,2.5 L36,2.5 L36,-2.5 L-36,-2.5 L-36,2.5"/>
</g>

<g fill="none" stroke="#000000" stroke-opacity="1" stroke-width="1" stroke-linecap="square" stroke-linejoin="bevel" transform="matrix(0.5,0.866025,-0.866025,0.5,566.284,503.157)"
font-family=".SF NS Text" font-size="10" font-weight="400" font-style="normal"
>
</g>

<g fill="none" stroke="#000000" stroke-opacity="1" stroke-width="1" stroke-linecap="square" stroke-linejoin="bevel" transform="matrix(0.5,0.866025,-0.866025,0.5,374.169,632.014)"
font-family=".SF NS Text" font-size="10" font-weight="400" font-style="normal"
>
</g>

<g fill="none" stroke="#ffffff" stroke-opacity="0.501961" stroke-width="1" stroke-linecap="square" stroke-linejoin="bevel" transform="matrix(0.5,0.866025,-0.866025,0.5,374.169,632.014)"
font-family=".SF NS Text" font-size="10" font-weight="400" font-style="normal"
>
<path vector-effect="non-scaling-stroke" fill-rule="evenodd" d="M-108,2.5 L108,2.5 L108,-2.5 L-108,-2.5 L-108,2.5"/>
</g>

<g fill="none" stroke="#000000" stroke-opacity="1" stroke-width="1" stroke-linecap="square" stroke-linejoin="bevel" transform="matrix(0.5,0.866025,-0.866025,0.5,374.169,632.014)"
font-family=".SF NS Text" font-size="10" font-weight="400" font-style="normal"
>
</g>

<g fill="none" stroke="#000000" stroke-opacity="1" stroke-width="1" stroke-linecap="square" stroke-linejoin="bevel" transform="matrix(0.5,0.866025,-0.866025,0.5,402.363,622.775)"
font-family=".SF NS Text" font-size="10" font-weight="400" font-style="normal"
>
</g>

<g fill="none" stroke="#ffffff" stroke-opacity="0.501961" stroke-width="1" stroke-linecap="square" stroke-linejoin="bevel" transform="matrix(0.5,0.866025,-0.866025,0.5,402.363,622.775)"
font-family=".SF NS Text" font-size="10" font-weight="400" font-style="normal"
>
<path vector-effect="non-scaling-stroke" fill-rule="evenodd" d="M-72,2.5 L72,2.5 L72,-2.5 L-72,-2.5 L-72,2.5"/>
</g>

<g fill="none" stroke="#000000" stroke-opacity="1" stroke-width="1" stroke-linecap="square" stroke-linejoin="bevel" transform="matrix(0.5,0.866025,-0.866025,0.5,402.363,622.775)"
font-family=".SF NS Text" font-size="10" font-weight="400" font-style="normal"
>
</g>

<g fill="none" stroke="#000000" stroke-opacity="1" stroke-width="1" stroke-linecap="square" stroke-linejoin="bevel" transform="matrix(0.5,0.866025,-0.866025,0.5,339.129,678.655)"
font-family=".SF NS Text" font-size="10" font-weight="400" font-style="normal"
>
</g>

<g fill="none" stroke="#ffffff" stroke-opacity="0.501961" stroke-width="1" stroke-linecap="square" stroke-linejoin="bevel" transform="matrix(0.5,0.866025,-0.866025,0.5,339.129,678.655)"
font-family=".SF NS Text" font-size="10" font-weight="400" font-style="normal"
>
<path vector-effect="non-scaling-stroke" fill-rule="evenodd" d="M-144,2.5 L144,2.5 L144,-2.5 L-144,-2.5 L-144,2.5"/>
</g>

<g fill="none" stroke="#000000" stroke-opacity="1" stroke-width="1" stroke-linecap="square" stroke-linejoin="bevel" transform="matrix(0.5,0.866025,-0.866025,0.5,339.129,678.655)"
font-family=".SF NS Text" font-size="10" font-weight="400" font-style="normal"
>
</g>

<g fill="none" stroke="#000000" stroke-opacity="1" stroke-width="1" stroke-linecap="square" stroke-linejoin="bevel" transform="matrix(-0.5,0.866025,-0.866025,-0.5,492.363,594.098)"
font-family=".SF NS Text" font-size="10" font-weight="400" font-style="normal"
>
</g>

<g fill="none" stroke="#ffffff" stroke-opacity="0.501961" stroke-width="1" stroke-linecap="square" stroke-linejoin="bevel" transform="matrix(-0.5,0.866025,-0.866025,-0.5,492.363,594.098)"
font-family=".SF NS Text" font-size="10" font-weight="400" font-style="normal"
>
<path vector-effect="non-scaling-stroke" fill-rule="evenodd" d="M-108,2.5 L108,2.5 L108,-2.5 L-108,-2.5 L-108,2.5"/>
</g>

<g fill="none" stroke="#000000" stroke-opacity="1" stroke-width="1" stroke-linecap="square" stroke-linejoin="bevel" transform="matrix(-0.5,0.866025,-0.866025,-0.5,492.363,594.098)"
font-family=".SF NS Text" font-size="10" font-weight="400" font-style="normal"
>
</g>

<g fill="none" stroke="#000000" stroke-opacity="1" stroke-width="1" stroke-linecap="square" stroke-linejoin="bevel" transform="matrix(0.5,0.866025,-0.866025,0.5,227.733,841.977)"
font-family=".SF NS Text" font-size="10" font-weight="400" font-style="normal"
>
</g>

<g fill="none" stroke="#ffffff" stroke-opacity="0.501961" stroke-width="1" stroke-linecap="square" stroke-linejoin="bevel" transform="matrix(0.5,0.866025,-0.866025,0.5,227.733,841.977)"
font-family=".SF NS Text" font-size="10" font-weight="400" font-style="normal"
>
<path vector-effect="non-scaling-stroke" fill-rule="evenodd" d="M-180,2.5 L180,2.5 L180,-2.5 L-180,-2.5 L-180,2.5"/>
</g>

<g fill="none" stroke="#000000" stroke-opacity="1" stroke-width="1" stroke-linecap="square" stroke-linejoin="bevel" transform="matrix(0.5,0.866025,-0.866025,0.5,227.733,841.977)"
font-family=".SF NS Text" font-size="10" font-weight="400" font-style="normal"
>
</g>

<g fill="none" stroke="#000000" stroke-opacity="1" stroke-width="1" stroke-linecap="square" stroke-linejoin="bevel" transform="matrix(0.5,0.866025,-0.866025,0.5,834.583,799.476)"
font-family=".SF NS Text" font-size="10" font-weight="400" font-style="normal"
>
</g>

<g fill="none" stroke="#ffffff" stroke-opacity="0.501961" stroke-width="1" stroke-linecap="square" stroke-linejoin="bevel" transform="matrix(0.5,0.866025,-0.866025,0.5,834.583,799.476)"
font-family=".SF NS Text" font-size="10" font-weight="400" font-style="normal"
>
<path vector-effect="non-scaling-stroke" fill-rule="evenodd" d="M-180,2.5 L180,2.5 L180,-2.5 L-180,-2.5 L-180,2.5"/>
</g>

<g fill="none" stroke="#000000" stroke-opacity="1" stroke-width="1" stroke-linecap="square" stroke-linejoin="bevel" transform="matrix(0.5,0.866025,-0.866025,0.5,834.583,799.476)"
font-family=".SF NS Text" font-size="10" font-weight="400" font-style="normal"
>
</g>

<g fill="none" stroke="#000000" stroke-opacity="1" stroke-width="1" stroke-linecap="square" stroke-linejoin="bevel" transform="matrix(-0.5,0.866025,-0.866025,-0.5,1000.91,830.653)"
font-family=".SF NS Text" font-size="10" font-weight="400" font-style="normal"
>
</g>

<g fill="none" stroke="#ffffff" stroke-opacity="0.501961" stroke-width="1" stroke-linecap="square" stroke-linejoin="bevel" transform="matrix(-0.5,0.866025,-0.866025,-0.5,1000.91,830.653)"
font-family=".SF NS Text" font-size="10" font-weight="400" font-style="normal"
>
<path vector-effect="non-scaling-stroke" fill-rule="evenodd" d="M-144,2.5 L144,2.5 L144,-2.5 L-144,-2.5 L-144,2.5"/>
</g>

<g fill="none" stroke="#000000" stroke-opacity="1" stroke-width="1" stroke-linecap="square" stroke-linejoin="bevel" transform="matrix(-0.5,0.866025,-0.866025,-0.5,1000.91,830.653)"
font-family=".SF NS Text" font-size="10" font-weight="400" font-style="normal"
>
</g>

<g fill="none" stroke="#000000" stroke-opacity="1" stroke-width="1" stroke-linecap="square" stroke-linejoin="bevel" transform="matrix(-0.5,0.866025,-0.866025,-0.5,882.653,1006.4)"
font-family=".SF NS Text" font-size="10" font-weight="400" font-style="normal"
>
</g>

<g fill="none" stroke="#ffffff" stroke-opacity="0.501961" stroke-width="1" stroke-linecap="square" stroke-linejoin="bevel" transform="matrix(-0.5,0.866025,-0.866025,-0.5,882.653,1006.4)"
font-family=".SF NS Text" font-size="10" font-weight="400" font-style="normal"
>
<path vector-effect="non-scaling-stroke" fill-rule="evenodd" d="M-180,2.5 L180,2.5 L180,-2.5 L-180,-2.5 L-180,2.5"/>
</g>

<g fill="none" stroke="#000000" stroke-opacity="1" stroke-width="1" stroke-linecap="square" stroke-linejoin="bevel" transform="matrix(-0.5,0.866025,-0.866025,-0.5,882.653,1006.4)"
font-family=".SF NS Text" font-size="10" font-weight="400" font-style="normal"
>
</g>

<g fill="none" stroke="#000000" stroke-opacity="1" stroke-width="1" stroke-linecap="square" stroke-linejoin="bevel" transform="matrix(-0.5,0.866025,-0.866025,-0.5,1038.43,834.647)"
font-family=".SF NS Text" font-size="10" font-weight="400" font-style="normal"
>
</g>

<g fill="none" stroke="#ffffff" stroke-opacity="0.501961" stroke-width="1" stroke-linecap="square" stroke-linejoin="bevel" transform="matrix(-0.5,0.866025,-0.866025,-0.5,1038.43,834.647)"
font-family=".SF NS Text" font-size="10" font-weight="400" font-style="normal"
>
<path vector-effect="non-scaling-stroke" fill-rule="evenodd" d="M-72,2.5 L72,2.5 L72,-2.5 L-72,-2.5 L-72,2.5"/>
</g>

<g fill="none" stroke="#000000" stroke-opacity="1" stroke-width="1" stroke-linecap="square" stroke-linejoin="bevel" transform="matrix(-0.5,0.866025,-0.866025,-0.5,1038.43,834.647)"
font-family=".SF NS Text" font-size="10" font-weight="400" font-style="normal"
>
</g>

<g fill="none" stroke="#000000" stroke-opacity="1" stroke-width="1" stroke-linecap="square" stroke-linejoin="bevel" transform="matrix(0.5,0.866025,-0.866025,0.5,777.24,842.796)"
font-family=".SF NS Text" font-size="10" font-weight="400" font-style="normal"
>
</g>

<g fill="none" stroke="#ffffff" stroke-opacity="0.501961" stroke-width="1" stroke-linecap="square" stroke-linejoin="bevel" transform="matrix(0.5,0.866025,-0.866025,0.5,777.24,842.796)"
font-family=".SF NS Text" font-size="10" font-weight="400" font-style="normal"
>
<path vector-effect="non-scaling-stroke" fill-rule="evenodd" d="M-108,2.5 L108,2.5 L108,-2.5 L-108,-2.5 L-108,2.5"/>
</g>

<g fill="none" stroke="#000000" stroke-opacity="1" stroke-width="1" stroke-linecap="square" stroke-linejoin="bevel" transform="matrix(0.5,0.866025,-0.866025,0.5,777.24,842.796)"
font-family=".SF NS Text" font-size="10" font-weight="400" font-style="normal"
>
</g>

<g fill="none" stroke="#000000" stroke-opacity="1" stroke-width="1" stroke-linecap="square" stroke-linejoin="bevel" transform="matrix(-0.5,0.866025,-0.866025,-0.5,722.049,726.239)"
font-family=".SF NS Text" font-size="10" font-weight="400" font-style="normal"
>
</g>

<g fill="none" stroke="#ffffff" stroke-opacity="0.501961" stroke-width="1" stroke-linecap="square" stroke-linejoin="bevel" transform="matrix(-0.5,0.866025,-0.866025,-0.5,722.049,726.239)"
font-family=".SF NS Text" font-size="10" font-weight="400" font-style="normal"
>
<path vector-effect="non-scaling-stroke" fill-rule="evenodd" d="M-72,2.5 L72,2.5 L72,-2.5 L-72,-2.5 L-72,2.5"/>
</g>

<g fill="none" stroke="#000000" stroke-opacity="1" stroke-width="1" stroke-linecap="square" stroke-linejoin="bevel" transform="matrix(-0.5,0.866025,-0.866025,-0.5,722.049,726.239)"
font-family=".SF NS Text" font-size="10" font-weight="400" font-style="normal"
>
</g>

<g fill="none" stroke="#000000" stroke-opacity="1" stroke-width="1" stroke-linecap="square" stroke-linejoin="bevel" transform="matrix(-0.5,0.866025,-0.866025,-0.5,586.034,662.775)"
font-family=".SF NS Text" font-size="10" font-weight="400" font-style="normal"
>
</g>

<g fill="none" stroke="#ffffff" stroke-opacity="0.501961" stroke-width="1" stroke-linecap="square" stroke-linejoin="bevel" transform="matrix(-0.5,0.866025,-0.866025,-0.5,586.034,662.775)"
font-family=".SF NS Text" font-size="10" font-weight="400" font-style="normal"
>
<path vector-effect="non-scaling-stroke" fill-rule="evenodd" d="M-108,2.5 L108,2.5 L108,-2.5 L-108,-2.5 L-108,2.5"/>
</g>

<g fill="none" stroke="#000000" stroke-opacity="1" stroke-width="1" stroke-linecap="square" stroke-linejoin="bevel" transform="matrix(-0.5,0.866025,-0.866025,-0.5,586.034,662.775)"
font-family=".SF NS Text" font-size="10" font-weight="400" font-style="normal"
>
</g>

<g fill="none" stroke="#000000" stroke-opacity="1" stroke-width="1" stroke-linecap="square" stroke-linejoin="bevel" transform="matrix(0.5,0.866025,-0.866025,0.5,716.364,693.952)"
font-family=".SF NS Text" font-size="10" font-weight="400" font-style="normal"
>
</g>

<g fill="none" stroke="#ffffff" stroke-opacity="0.501961" stroke-width="1" stroke-linecap="square" stroke-linejoin="bevel" transform="matrix(0.5,0.866025,-0.866025,0.5,716.364,693.952)"
font-family=".SF NS Text" font-size="10" font-weight="400" font-style="normal"
>
<path vector-effect="non-scaling-stroke" fill-rule="evenodd" d="M-144,2.5 L144,2.5 L144,-2.5 L-144,-2.5 L-144,2.5"/>
</g>

<g fill="none" stroke="#000000" stroke-opacity="1" stroke-width="1" stroke-linecap="square" stroke-linejoin="bevel" transform="matrix(0.5,0.866025,-0.866025,0.5,716.364,693.952)"
font-family=".SF NS Text" font-size="10" font-weight="400" font-style="normal"
>
</g>

<g fill="none" stroke="#000000" stroke-opacity="1" stroke-width="1" stroke-linecap="square" stroke-linejoin="bevel" transform="matrix(0.5,0.866025,-0.866025,0.5,625.049,685.438)"
font-family=".SF NS Text" font-size="10" font-weight="400" font-style="normal"
>
</g>

<g fill="none" stroke="#ffffff" stroke-opacity="0.501961" stroke-width="1" stroke-linecap="square" stroke-linejoin="bevel" transform="matrix(0.5,0.866025,-0.866025,0.5,625.049,685.438)"
font-family=".SF NS Text" font-size="10" font-weight="400" font-style="normal"
>
<path vector-effect="non-scaling-stroke" fill-rule="evenodd" d="M-122,2.5 L122,2.5 L122,-2.5 L-122,-2.5 L-122,2.5"/>
</g>

<g fill="none" stroke="#000000" stroke-opacity="1" stroke-width="1" stroke-linecap="square" stroke-linejoin="bevel" transform="matrix(0.5,0.866025,-0.866025,0.5,625.049,685.438)"
font-family=".SF NS Text" font-size="10" font-weight="400" font-style="normal"
>
</g>

<g fill="none" stroke="#000000" stroke-opacity="1" stroke-width="1" stroke-linecap="square" stroke-linejoin="bevel" transform="matrix(0.5,-0.866025,0.866025,0.5,530.164,892.354)"
font-family=".SF NS Text" font-size="10" font-weight="400" font-style="normal"
>
</g>

<g fill="none" stroke="#ffffff" stroke-opacity="0.501961" stroke-width="1" stroke-linecap="square" stroke-linejoin="bevel" transform="matrix(0.5,-0.866025,0.866025,0.5,530.164,892.354)"
font-family=".SF NS Text" font-size="10" font-weight="400" font-style="normal"
>
<path vector-effect="non-scaling-stroke" fill-rule="evenodd" d="M-108,2.5 L108,2.5 L108,-2.5 L-108,-2.5 L-108,2.5"/>
</g>

<g fill="none" stroke="#000000" stroke-opacity="1" stroke-width="1" stroke-linecap="square" stroke-linejoin="bevel" transform="matrix(0.5,-0.866025,0.866025,0.5,530.164,892.354)"
font-family=".SF NS Text" font-size="10" font-weight="400" font-style="normal"
>
</g>

<g fill="none" stroke="#000000" stroke-opacity="1" stroke-width="1" stroke-linecap="square" stroke-linejoin="bevel" transform="matrix(-0.5,-0.866025,0.866025,-0.5,365.902,959.166)"
font-family=".SF NS Text" font-size="10" font-weight="400" font-style="normal"
>
</g>

<g fill="none" stroke="#ffffff" stroke-opacity="0.501961" stroke-width="1" stroke-linecap="square" stroke-linejoin="bevel" transform="matrix(-0.5,-0.866025,0.866025,-0.5,365.902,959.166)"
font-family=".SF NS Text" font-size="10" font-weight="400" font-style="normal"
>
<path vector-effect="non-scaling-stroke" fill-rule="evenodd" d="M-36,2.5 L36,2.5 L36,-2.5 L-36,-2.5 L-36,2.5"/>
</g>

<g fill="none" stroke="#000000" stroke-opacity="1" stroke-width="1" stroke-linecap="square" stroke-linejoin="bevel" transform="matrix(-0.5,-0.866025,0.866025,-0.5,365.902,959.166)"
font-family=".SF NS Text" font-size="10" font-weight="400" font-style="normal"
>
</g>

<g fill="none" stroke="#000000" stroke-opacity="1" stroke-width="1" stroke-linecap="square" stroke-linejoin="bevel" transform="matrix(-0.5,0.866025,-0.866025,-0.5,204.1,922.199)"
font-family=".SF NS Text" font-size="10" font-weight="400" font-style="normal"
>
</g>

<g fill="none" stroke="#ffffff" stroke-opacity="0.501961" stroke-width="1" stroke-linecap="square" stroke-linejoin="bevel" transform="matrix(-0.5,0.866025,-0.866025,-0.5,204.1,922.199)"
font-family=".SF NS Text" font-size="10" font-weight="400" font-style="normal"
>
<path vector-effect="non-scaling-stroke" fill-rule="evenodd" d="M-180,2.5 L180,2.5 L180,-2.5 L-180,-2.5 L-180,2.5"/>
</g>

<g fill="none" stroke="#000000" stroke-opacity="1" stroke-width="1" stroke-linecap="square" stroke-linejoin="bevel" transform="matrix(-0.5,0.866025,-0.866025,-0.5,204.1,922.199)"
font-family=".SF NS Text" font-size="10" font-weight="400" font-style="normal"
>
</g>

<g fill="none" stroke="#000000" stroke-opacity="1" stroke-width="1" stroke-linecap="square" stroke-linejoin="bevel" transform="matrix(-0.5,-0.866025,0.866025,-0.5,1036.38,1188.13)"
font-family=".SF NS Text" font-size="10" font-weight="400" font-style="normal"
>
</g>

<g fill="none" stroke="#ffffff" stroke-opacity="0.501961" stroke-width="1" stroke-linecap="square" stroke-linejoin="bevel" transform="matrix(-0.5,-0.866025,0.866025,-0.5,1036.38,1188.13)"
font-family=".SF NS Text" font-size="10" font-weight="400" font-style="normal"
>
<path vector-effect="non-scaling-stroke" fill-rule="evenodd" d="M-72,2.5 L72,2.5 L72,-2.5 L-72,-2.5 L-72,2.5"/>
</g>

<g fill="none" stroke="#000000" stroke-opacity="1" stroke-width="1" stroke-linecap="square" stroke-linejoin="bevel" transform="matrix(-0.5,-0.866025,0.866025,-0.5,1036.38,1188.13)"
font-family=".SF NS Text" font-size="10" font-weight="400" font-style="normal"
>
</g>

<g fill="none" stroke="#000000" stroke-opacity="1" stroke-width="1" stroke-linecap="square" stroke-linejoin="bevel" transform="matrix(-0.5,0.866025,-0.866025,-0.5,1014.49,559.728)"
font-family=".SF NS Text" font-size="10" font-weight="400" font-style="normal"
>
</g>

<g fill="none" stroke="#ffffff" stroke-opacity="0.501961" stroke-width="1" stroke-linecap="square" stroke-linejoin="bevel" transform="matrix(-0.5,0.866025,-0.866025,-0.5,1014.49,559.728)"
font-family=".SF NS Text" font-size="10" font-weight="400" font-style="normal"
>
<path vector-effect="non-scaling-stroke" fill-rule="evenodd" d="M-108,2.5 L108,2.5 L108,-2.5 L-108,-2.5 L-108,2.5"/>
</g>

<g fill="none" stroke="#000000" stroke-opacity="1" stroke-width="1" stroke-linecap="square" stroke-linejoin="bevel" transform="matrix(-0.5,0.866025,-0.866025,-0.5,1014.49,559.728)"
font-family=".SF NS Text" font-size="10" font-weight="400" font-style="normal"
>
</g>

<g fill="none" stroke="#000000" stroke-opacity="1" stroke-width="1" stroke-linecap="square" stroke-linejoin="bevel" transform="matrix(-0.5,0.866025,-0.866025,-0.5,734.037,589.849)"
font-family=".SF NS Text" font-size="10" font-weight="400" font-style="normal"
>
</g>

<g fill="none" stroke="#ffffff" stroke-opacity="0.501961" stroke-width="1" stroke-linecap="square" stroke-linejoin="bevel" transform="matrix(-0.5,0.866025,-0.866025,-0.5,734.037,589.849)"
font-family=".SF NS Text" font-size="10" font-weight="400" font-style="normal"
>
<path vector-effect="non-scaling-stroke" fill-rule="evenodd" d="M-108,2.5 L108,2.5 L108,-2.5 L-108,-2.5 L-108,2.5"/>
</g>

<g fill="none" stroke="#000000" stroke-opacity="1" stroke-width="1" stroke-linecap="square" stroke-linejoin="bevel" transform="matrix(-0.5,0.866025,-0.866025,-0.5,734.037,589.849)"
font-family=".SF NS Text" font-size="10" font-weight="400" font-style="normal"
>
</g>

<g fill="none" stroke="#000000" stroke-opacity="1" stroke-width="1" stroke-linecap="square" stroke-linejoin="bevel" transform="matrix(0.5,0.866025,-0.866025,0.5,870.488,499.875)"
font-family=".SF NS Text" font-size="10" font-weight="400" font-style="normal"
>
</g>

<g fill="none" stroke="#ffffff" stroke-opacity="0.501961" stroke-width="1" stroke-linecap="square" stroke-linejoin="bevel" transform="matrix(0.5,0.866025,-0.866025,0.5,870.488,499.875)"
font-family=".SF NS Text" font-size="10" font-weight="400" font-style="normal"
>
<path vector-effect="non-scaling-stroke" fill-rule="evenodd" d="M-180,2.5 L180,2.5 L180,-2.5 L-180,-2.5 L-180,2.5"/>
</g>

<g fill="none" stroke="#000000" stroke-opacity="1" stroke-width="1" stroke-linecap="square" stroke-linejoin="bevel" transform="matrix(0.5,0.866025,-0.866025,0.5,870.488,499.875)"
font-family=".SF NS Text" font-size="10" font-weight="400" font-style="normal"
>
</g>

<g fill="none" stroke="#000000" stroke-opacity="1" stroke-width="1" stroke-linecap="square" stroke-linejoin="bevel" transform="matrix(-0.5,0.866025,-0.866025,-0.5,816.282,611.537)"
font-family=".SF NS Text" font-size="10" font-weight="400" font-style="normal"
>
</g>

<g fill="none" stroke="#ffffff" stroke-opacity="0.501961" stroke-width="1" stroke-linecap="square" stroke-linejoin="bevel" transform="matrix(-0.5,0.866025,-0.866025,-0.5,816.282,611.537)"
font-family=".SF NS Text" font-size="10" font-weight="400" font-style="normal"
>
<path vector-effect="non-scaling-stroke" fill-rule="evenodd" d="M-144,2.5 L144,2.5 L144,-2.5 L-144,-2.5 L-144,2.5"/>
</g>

<g fill="none" stroke="#000000" stroke-opacity="1" stroke-width="1" stroke-linecap="square" stroke-linejoin="bevel" transform="matrix(-0.5,0.866025,-0.866025,-0.5,816.282,611.537)"
font-family=".SF NS Text" font-size="10" font-weight="400" font-style="normal"
>
</g>

<g fill="none" stroke="#000000" stroke-opacity="1" stroke-width="1" stroke-linecap="square" stroke-linejoin="bevel" transform="matrix(0.5,0.866025,-0.866025,0.5,841.38,672.68)"
font-family=".SF NS Text" font-size="10" font-weight="400" font-style="normal"
>
</g>

<g fill="none" stroke="#ffffff" stroke-opacity="0.501961" stroke-width="1" stroke-linecap="square" stroke-linejoin="bevel" transform="matrix(0.5,0.866025,-0.866025,0.5,841.38,672.68)"
font-family=".SF NS Text" font-size="10" font-weight="400" font-style="normal"
>
<path vector-effect="non-scaling-stroke" fill-rule="evenodd" d="M-108,2.5 L108,2.5 L108,-2.5 L-108,-2.5 L-108,2.5"/>
</g>

<g fill="none" stroke="#000000" stroke-opacity="1" stroke-width="1" stroke-linecap="square" stroke-linejoin="bevel" transform="matrix(0.5,0.866025,-0.866025,0.5,841.38,672.68)"
font-family=".SF NS Text" font-size="10" font-weight="400" font-style="normal"
>
</g>

<g fill="none" stroke="#000000" stroke-opacity="1" stroke-width="1" stroke-linecap="square" stroke-linejoin="bevel" transform="matrix(0.5,0.866025,-0.866025,0.5,1037.75,360.682)"
font-family=".SF NS Text" font-size="10" font-weight="400" font-style="normal"
>
</g>

<g fill="none" stroke="#ffffff" stroke-opacity="0.501961" stroke-width="1" stroke-linecap="square" stroke-linejoin="bevel" transform="matrix(0.5,0.866025,-0.866025,0.5,1037.75,360.682)"
font-family=".SF NS Text" font-size="10" font-weight="400" font-style="normal"
>
<path vector-effect="non-scaling-stroke" fill-rule="evenodd" d="M-72,2.5 L72,2.5 L72,-2.5 L-72,-2.5 L-72,2.5"/>
</g>

<g fill="none" stroke="#000000" stroke-opacity="1" stroke-width="1" stroke-linecap="square" stroke-linejoin="bevel" transform="matrix(0.5,0.866025,-0.866025,0.5,1037.75,360.682)"
font-family=".SF NS Text" font-size="10" font-weight="400" font-style="normal"
>
</g>

<g fill="none" stroke="#000000" stroke-opacity="1" stroke-width="1" stroke-linecap="square" stroke-linejoin="bevel" transform="matrix(-0.5,0.866025,-0.866025,-0.5,536.064,402.141)"
font-family=".SF NS Text" font-size="10" font-weight="400" font-style="normal"
>
</g>

<g fill="none" stroke="#ffffff" stroke-opacity="0.501961" stroke-width="1" stroke-linecap="square" stroke-linejoin="bevel" transform="matrix(-0.5,0.866025,-0.866025,-0.5,536.064,402.141)"
font-family=".SF NS Text" font-size="10" font-weight="400" font-style="normal"
>
<path vector-effect="non-scaling-stroke" fill-rule="evenodd" d="M-108,2.5 L108,2.5 L108,-2.5 L-108,-2.5 L-108,2.5"/>
</g>

<g fill="none" stroke="#000000" stroke-opacity="1" stroke-width="1" stroke-linecap="square" stroke-linejoin="bevel" transform="matrix(-0.5,0.866025,-0.866025,-0.5,536.064,402.141)"
font-family=".SF NS Text" font-size="10" font-weight="400" font-style="normal"
>
</g>

<g fill="none" stroke="#000000" stroke-opacity="1" stroke-width="1" stroke-linecap="square" stroke-linejoin="bevel" transform="matrix(-0.5,0.866025,-0.866025,-0.5,489.954,565.511)"
font-family=".SF NS Text" font-size="10" font-weight="400" font-style="normal"
>
</g>

<g fill="none" stroke="#ffffff" stroke-opacity="0.501961" stroke-width="1" stroke-linecap="square" stroke-linejoin="bevel" transform="matrix(-0.5,0.866025,-0.866025,-0.5,489.954,565.511)"
font-family=".SF NS Text" font-size="10" font-weight="400" font-style="normal"
>
<path vector-effect="non-scaling-stroke" fill-rule="evenodd" d="M-108,2.5 L108,2.5 L108,-2.5 L-108,-2.5 L-108,2.5"/>
</g>

<g fill="none" stroke="#000000" stroke-opacity="1" stroke-width="1" stroke-linecap="square" stroke-linejoin="bevel" transform="matrix(-0.5,0.866025,-0.866025,-0.5,489.954,565.511)"
font-family=".SF NS Text" font-size="10" font-weight="400" font-style="normal"
>
</g>

<g fill="none" stroke="#000000" stroke-opacity="1" stroke-width="1" stroke-linecap="square" stroke-linejoin="bevel" transform="matrix(0.5,0.866025,-0.866025,0.5,391.108,274.016)"
font-family=".SF NS Text" font-size="10" font-weight="400" font-style="normal"
>
</g>

<g fill="none" stroke="#ffffff" stroke-opacity="0.501961" stroke-width="1" stroke-linecap="square" stroke-linejoin="bevel" transform="matrix(0.5,0.866025,-0.866025,0.5,391.108,274.016)"
font-family=".SF NS Text" font-size="10" font-weight="400" font-style="normal"
>
<path vector-effect="non-scaling-stroke" fill-rule="evenodd" d="M-72,2.5 L72,2.5 L72,-2.5 L-72,-2.5 L-72,2.5"/>
</g>

<g fill="none" stroke="#000000" stroke-opacity="1" stroke-width="1" stroke-linecap="square" stroke-linejoin="bevel" transform="matrix(0.5,0.866025,-0.866025,0.5,391.108,274.016)"
font-family=".SF NS Text" font-size="10" font-weight="400" font-style="normal"
>
</g>

<g fill="none" stroke="#000000" stroke-opacity="1" stroke-width="1" stroke-linecap="square" stroke-linejoin="bevel" transform="matrix(-0.5,0.866025,-0.866025,-0.5,545.234,274.181)"
font-family=".SF NS Text" font-size="10" font-weight="400" font-style="normal"
>
</g>

<g fill="none" stroke="#ffffff" stroke-opacity="0.501961" stroke-width="1" stroke-linecap="square" stroke-linejoin="bevel" transform="matrix(-0.5,0.866025,-0.866025,-0.5,545.234,274.181)"
font-family=".SF NS Text" font-size="10" font-weight="400" font-style="normal"
>
<path vector-effect="non-scaling-stroke" fill-rule="evenodd" d="M-72,2.5 L72,2.5 L72,-2.5 L-72,-2.5 L-72,2.5"/>
</g>

<g fill="none" stroke="#000000" stroke-opacity="1" stroke-width="1" stroke-linecap="square" stroke-linejoin="bevel" transform="matrix(-0.5,0.866025,-0.866025,-0.5,545.234,274.181)"
font-family=".SF NS Text" font-size="10" font-weight="400" font-style="normal"
>
</g>

<g fill="none" stroke="#000000" stroke-opacity="1" stroke-width="1" stroke-linecap="square" stroke-linejoin="bevel" transform="matrix(0.5,0.866025,-0.866025,0.5,665.886,291.275)"
font-family=".SF NS Text" font-size="10" font-weight="400" font-style="normal"
>
</g>

<g fill="none" stroke="#ffffff" stroke-opacity="0.501961" stroke-width="1" stroke-linecap="square" stroke-linejoin="bevel" transform="matrix(0.5,0.866025,-0.866025,0.5,665.886,291.275)"
font-family=".SF NS Text" font-size="10" font-weight="400" font-style="normal"
>
<path vector-effect="non-scaling-stroke" fill-rule="evenodd" d="M-72,2.5 L72,2.5 L72,-2.5 L-72,-2.5 L-72,2.5"/>
</g>

<g fill="none" stroke="#000000" stroke-opacity="1" stroke-width="1" stroke-linecap="square" stroke-linejoin="bevel" transform="matrix(0.5,0.866025,-0.866025,0.5,665.886,291.275)"
font-family=".SF NS Text" font-size="10" font-weight="400" font-style="normal"
>
</g>

<g fill="none" stroke="#000000" stroke-opacity="1" stroke-width="1" stroke-linecap="square" stroke-linejoin="bevel" transform="matrix(-0.5,0.866025,-0.866025,-0.5,838.804,323.308)"
font-family=".SF NS Text" font-size="10" font-weight="400" font-style="normal"
>
</g>

<g fill="none" stroke="#ffffff" stroke-opacity="0.501961" stroke-width="1" stroke-linecap="square" stroke-linejoin="bevel" transform="matrix(-0.5,0.866025,-0.866025,-0.5,838.804,323.308)"
font-family=".SF NS Text" font-size="10" font-weight="400" font-style="normal"
>
<path vector-effect="non-scaling-stroke" fill-rule="evenodd" d="M-180,2.5 L180,2.5 L180,-2.5 L-180,-2.5 L-180,2.5"/>
</g>

<g fill="none" stroke="#000000" stroke-opacity="1" stroke-width="1" stroke-linecap="square" stroke-linejoin="bevel" transform="matrix(-0.5,0.866025,-0.866025,-0.5,838.804,323.308)"
font-family=".SF NS Text" font-size="10" font-weight="400" font-style="normal"
>
</g>

<g fill="none" stroke="#000000" stroke-opacity="1" stroke-width="1" stroke-linecap="square" stroke-linejoin="bevel" transform="matrix(0.5,0.866025,-0.866025,0.5,304.48,222.108)"
font-family=".SF NS Text" font-size="10" font-weight="400" font-style="normal"
>
</g>

<g fill="none" stroke="#ffffff" stroke-opacity="0.501961" stroke-width="1" stroke-linecap="square" stroke-linejoin="bevel" transform="matrix(0.5,0.866025,-0.866025,0.5,304.48,222.108)"
font-family=".SF NS Text" font-size="10" font-weight="400" font-style="normal"
>
<path vector-effect="non-scaling-stroke" fill-rule="evenodd" d="M-144,2.5 L144,2.5 L144,-2.5 L-144,-2.5 L-144,2.5"/>
</g>

<g fill="none" stroke="#000000" stroke-opacity="1" stroke-width="1" stroke-linecap="square" stroke-linejoin="bevel" transform="matrix(0.5,0.866025,-0.866025,0.5,304.48,222.108)"
font-family=".SF NS Text" font-size="10" font-weight="400" font-style="normal"
>
</g>

<g fill="none" stroke="#000000" stroke-opacity="1" stroke-width="1" stroke-linecap="square" stroke-linejoin="bevel" transform="matrix(-0.5,0.866025,-0.866025,-0.5,470.81,190.932)"
font-family=".SF NS Text" font-size="10" font-weight="400" font-style="normal"
>
</g>

<g fill="none" stroke="#ffffff" stroke-opacity="0.501961" stroke-width="1" stroke-linecap="square" stroke-linejoin="bevel" transform="matrix(-0.5,0.866025,-0.866025,-0.5,470.81,190.932)"
font-family=".SF NS Text" font-size="10" font-weight="400" font-style="normal"
>
<path vector-effect="non-scaling-stroke" fill-rule="evenodd" d="M-180,2.5 L180,2.5 L180,-2.5 L-180,-2.5 L-180,2.5"/>
</g>

<g fill="none" stroke="#000000" stroke-opacity="1" stroke-width="1" stroke-linecap="square" stroke-linejoin="bevel" transform="matrix(-0.5,0.866025,-0.866025,-0.5,470.81,190.932)"
font-family=".SF NS Text" font-size="10" font-weight="400" font-style="normal"
>
</g>

<g fill="none" stroke="#000000" stroke-opacity="1" stroke-width="1" stroke-linecap="square" stroke-linejoin="bevel" transform="matrix(-0.5,0.866025,-0.866025,-0.5,155.343,167.322)"
font-family=".SF NS Text" font-size="10" font-weight="400" font-style="normal"
>
</g>

<g fill="none" stroke="#ffffff" stroke-opacity="0.501961" stroke-width="1" stroke-linecap="square" stroke-linejoin="bevel" transform="matrix(-0.5,0.866025,-0.866025,-0.5,155.343,167.322)"
font-family=".SF NS Text" font-size="10" font-weight="400" font-style="normal"
>
<path vector-effect="non-scaling-stroke" fill-rule="evenodd" d="M-144,2.5 L144,2.5 L144,-2.5 L-144,-2.5 L-144,2.5"/>
</g>

<g fill="none" stroke="#000000" stroke-opacity="1" stroke-width="1" stroke-linecap="square" stroke-linejoin="bevel" transform="matrix(-0.5,0.866025,-0.866025,-0.5,155.343,167.322)"
font-family=".SF NS Text" font-size="10" font-weight="400" font-style="normal"
>
</g>

<g fill="none" stroke="#000000" stroke-opacity="1" stroke-width="1" stroke-linecap="square" stroke-linejoin="bevel" transform="matrix(-0.5,0.866025,-0.866025,-0.5,194.66,159.818)"
font-family=".SF NS Text" font-size="10" font-weight="400" font-style="normal"
>
</g>

<g fill="none" stroke="#ffffff" stroke-opacity="0.501961" stroke-width="1" stroke-linecap="square" stroke-linejoin="bevel" transform="matrix(-0.5,0.866025,-0.866025,-0.5,194.66,159.818)"
font-family=".SF NS Text" font-size="10" font-weight="400" font-style="normal"
>
<path vector-effect="non-scaling-stroke" fill-rule="evenodd" d="M-72,2.5 L72,2.5 L72,-2.5 L-72,-2.5 L-72,2.5"/>
</g>

<g fill="none" stroke="#000000" stroke-opacity="1" stroke-width="1" stroke-linecap="square" stroke-linejoin="bevel" transform="matrix(-0.5,0.866025,-0.866025,-0.5,194.66,159.818)"
font-family=".SF NS Text" font-size="10" font-weight="400" font-style="normal"
>
</g>

<g fill="none" stroke="#000000" stroke-opacity="1" stroke-width="1" stroke-linecap="square" stroke-linejoin="bevel" transform="matrix(0.5,0.866025,-0.866025,0.5,43.013,229.676)"
font-family=".SF NS Text" font-size="10" font-weight="400" font-style="normal"
>
</g>

<g fill="none" stroke="#ffffff" stroke-opacity="0.501961" stroke-width="1" stroke-linecap="square" stroke-linejoin="bevel" transform="matrix(0.5,0.866025,-0.866025,0.5,43.013,229.676)"
font-family=".SF NS Text" font-size="10" font-weight="400" font-style="normal"
>
<path vector-effect="non-scaling-stroke" fill-rule="evenodd" d="M-72,2.5 L72,2.5 L72,-2.5 L-72,-2.5 L-72,2.5"/>
</g>

<g fill="none" stroke="#000000" stroke-opacity="1" stroke-width="1" stroke-linecap="square" stroke-linejoin="bevel" transform="matrix(0.5,0.866025,-0.866025,0.5,43.013,229.676)"
font-family=".SF NS Text" font-size="10" font-weight="400" font-style="normal"
>
</g>

<g fill="none" stroke="#000000" stroke-opacity="1" stroke-width="1" stroke-linecap="square" stroke-linejoin="bevel" transform="matrix(0.5,0.866025,-0.866025,0.5,972.476,127.268)"
font-family=".SF NS Text" font-size="10" font-weight="400" font-style="normal"
>
</g>

<g fill="none" stroke="#ffffff" stroke-opacity="0.501961" stroke-width="1" stroke-linecap="square" stroke-linejoin="bevel" transform="matrix(0.5,0.866025,-0.866025,0.5,972.476,127.268)"
font-family=".SF NS Text" font-size="10" font-weight="400" font-style="normal"
>
<path vector-effect="non-scaling-stroke" fill-rule="evenodd" d="M-144,2.5 L144,2.5 L144,-2.5 L-144,-2.5 L-144,2.5"/>
</g>

<g fill="none" stroke="#000000" stroke-opacity="1" stroke-width="1" stroke-linecap="square" stroke-linejoin="bevel" transform="matrix(0.5,0.866025,-0.866025,0.5,972.476,127.268)"
font-family=".SF NS Text" font-size="10" font-weight="400" font-style="normal"
>
</g>

<g fill="none" stroke="#000000" stroke-opacity="1" stroke-width="1" stroke-linecap="square" stroke-linejoin="bevel" transform="matrix(0.5,0.866025,-0.866025,0.5,603.623,34.6854)"
font-family=".SF NS Text" font-size="10" font-weight="400" font-style="normal"
>
</g>

<g fill="none" stroke="#ffffff" stroke-opacity="0.501961" stroke-width="1" stroke-linecap="square" stroke-linejoin="bevel" transform="matrix(0.5,0.866025,-0.866025,0.5,603.623,34.6854)"
font-family=".SF NS Text" font-size="10" font-weight="400" font-style="normal"
>
<path vector-effect="non-scaling-stroke" fill-rule="evenodd" d="M-36,2.5 L36,2.5 L36,-2.5 L-36,-2.5 L-36,2.5"/>
</g>

<g fill="none" stroke="#000000" stroke-opacity="1" stroke-width="1" stroke-linecap="square" stroke-linejoin="bevel" transform="matrix(0.5,0.866025,-0.866025,0.5,603.623,34.6854)"
font-family=".SF NS Text" font-size="10" font-weight="400" font-style="normal"
>
</g>

<g fill="none" stroke="#000000" stroke-opacity="1" stroke-width="1" stroke-linecap="square" stroke-linejoin="bevel" transform="matrix(-0.5,0.866025,-0.866025,-0.5,88.0752,87.7514)"
font-family=".SF NS Text" font-size="10" font-weight="400" font-style="normal"
>
</g>

<g fill="none" stroke="#ffffff" stroke-opacity="0.501961" stroke-width="1" stroke-linecap="square" stroke-linejoin="bevel" transform="matrix(-0.5,0.866025,-0.866025,-0.5,88.0752,87.7514)"
font-family=".SF NS Text" font-size="10" font-weight="400" font-style="normal"
>
<path vector-effect="non-scaling-stroke" fill-rule="evenodd" d="M-72,2.5 L72,2.5 L72,-2.5 L-72,-2.5 L-72,2.5"/>
</g>

<g fill="none" stroke="#000000" stroke-opacity="1" stroke-width="1" stroke-linecap="square" stroke-linejoin="bevel" transform="matrix(-0.5,0.866025,-0.866025,-0.5,88.0752,87.7514)"
font-family=".SF NS Text" font-size="10" font-weight="400" font-style="normal"
>
</g>

<g fill="none" stroke="#000000" stroke-opacity="1" stroke-width="1" stroke-linecap="square" stroke-linejoin="bevel" transform="matrix(0.5,0.866025,-0.866025,0.5,74.2807,317.142)"
font-family=".SF NS Text" font-size="10" font-weight="400" font-style="normal"
>
</g>

<g fill="none" stroke="#ffffff" stroke-opacity="0.501961" stroke-width="1" stroke-linecap="square" stroke-linejoin="bevel" transform="matrix(0.5,0.866025,-0.866025,0.5,74.2807,317.142)"
font-family=".SF NS Text" font-size="10" font-weight="400" font-style="normal"
>
<path vector-effect="non-scaling-stroke" fill-rule="evenodd" d="M-144,2.5 L144,2.5 L144,-2.5 L-144,-2.5 L-144,2.5"/>
</g>

<g fill="none" stroke="#000000" stroke-opacity="1" stroke-width="1" stroke-linecap="square" stroke-linejoin="bevel" transform="matrix(0.5,0.866025,-0.866025,0.5,74.2807,317.142)"
font-family=".SF NS Text" font-size="10" font-weight="400" font-style="normal"
>
</g>

<g fill="none" stroke="#000000" stroke-opacity="1" stroke-width="1" stroke-linecap="square" stroke-linejoin="bevel" transform="matrix(-0.5,0.866025,-0.866025,-0.5,296.355,512.39)"
font-family=".SF NS Text" font-size="10" font-weight="400" font-style="normal"
>
</g>

<g fill="none" stroke="#ffffff" stroke-opacity="0.501961" stroke-width="1" stroke-linecap="square" stroke-linejoin="bevel" transform="matrix(-0.5,0.866025,-0.866025,-0.5,296.355,512.39)"
font-family=".SF NS Text" font-size="10" font-weight="400" font-style="normal"
>
<path vector-effect="non-scaling-stroke" fill-rule="evenodd" d="M-144,2.5 L144,2.5 L144,-2.5 L-144,-2.5 L-144,2.5"/>
</g>

<g fill="none" stroke="#000000" stroke-opacity="1" stroke-width="1" stroke-linecap="square" stroke-linejoin="bevel" transform="matrix(-0.5,0.866025,-0.866025,-0.5,296.355,512.39)"
font-family=".SF NS Text" font-size="10" font-weight="400" font-style="normal"
>
</g>

<g fill="none" stroke="#000000" stroke-opacity="1" stroke-width="1" stroke-linecap="square" stroke-linejoin="bevel" transform="matrix(0.5,0.866025,-0.866025,0.5,333.839,627.622)"
font-family=".SF NS Text" font-size="10" font-weight="400" font-style="normal"
>
</g>

<g fill="none" stroke="#ffffff" stroke-opacity="0.501961" stroke-width="1" stroke-linecap="square" stroke-linejoin="bevel" transform="matrix(0.5,0.866025,-0.866025,0.5,333.839,627.622)"
font-family=".SF NS Text" font-size="10" font-weight="400" font-style="normal"
>
<path vector-effect="non-scaling-stroke" fill-rule="evenodd" d="M-36,2.5 L36,2.5 L36,-2.5 L-36,-2.5 L-36,2.5"/>
</g>

<g fill="none" stroke="#000000" stroke-opacity="1" stroke-width="1" stroke-linecap="square" stroke-linejoin="bevel" transform="matrix(0.5,0.866025,-0.866025,0.5,333.839,627.622)"
font-family=".SF NS Text" font-size="10" font-weight="400" font-style="normal"
>
</g>

<g fill="none" stroke="#000000" stroke-opacity="1" stroke-width="1" stroke-linecap="square" stroke-linejoin="bevel" transform="matrix(-0.5,0.866025,-0.866025,-0.5,261.146,640.93)"
font-family=".SF NS Text" font-size="10" font-weight="400" font-style="normal"
>
</g>

<g fill="none" stroke="#ffffff" stroke-opacity="0.501961" stroke-width="1" stroke-linecap="square" stroke-linejoin="bevel" transform="matrix(-0.5,0.866025,-0.866025,-0.5,261.146,640.93)"
font-family=".SF NS Text" font-size="10" font-weight="400" font-style="normal"
>
<path vector-effect="non-scaling-stroke" fill-rule="evenodd" d="M-36,2.5 L36,2.5 L36,-2.5 L-36,-2.5 L-36,2.5"/>
</g>

<g fill="none" stroke="#000000" stroke-opacity="1" stroke-width="1" stroke-linecap="square" stroke-linejoin="bevel" transform="matrix(-0.5,0.866025,-0.866025,-0.5,261.146,640.93)"
font-family=".SF NS Text" font-size="10" font-weight="400" font-style="normal"
>
</g>

<g fill="none" stroke="#000000" stroke-opacity="1" stroke-width="1" stroke-linecap="square" stroke-linejoin="bevel" transform="matrix(-0.5,0.866025,-0.866025,-0.5,261.839,664.48)"
font-family=".SF NS Text" font-size="10" font-weight="400" font-style="normal"
>
</g>

<g fill="none" stroke="#ffffff" stroke-opacity="0.501961" stroke-width="1" stroke-linecap="square" stroke-linejoin="bevel" transform="matrix(-0.5,0.866025,-0.866025,-0.5,261.839,664.48)"
font-family=".SF NS Text" font-size="10" font-weight="400" font-style="normal"
>
<path vector-effect="non-scaling-stroke" fill-rule="evenodd" d="M-108,2.5 L108,2.5 L108,-2.5 L-108,-2.5 L-108,2.5"/>
</g>

<g fill="none" stroke="#000000" stroke-opacity="1" stroke-width="1" stroke-linecap="square" stroke-linejoin="bevel" transform="matrix(-0.5,0.866025,-0.866025,-0.5,261.839,664.48)"
font-family=".SF NS Text" font-size="10" font-weight="400" font-style="normal"
>
</g>

<g fill="none" stroke="#000000" stroke-opacity="1" stroke-width="1" stroke-linecap="square" stroke-linejoin="bevel" transform="matrix(0.5,0.866025,-0.866025,0.5,57.8477,703.915)"
font-family=".SF NS Text" font-size="10" font-weight="400" font-style="normal"
>
</g>

<g fill="none" stroke="#ffffff" stroke-opacity="0.501961" stroke-width="1" stroke-linecap="square" stroke-linejoin="bevel" transform="matrix(0.5,0.866025,-0.866025,0.5,57.8477,703.915)"
font-family=".SF NS Text" font-size="10" font-weight="400" font-style="normal"
>
<path vector-effect="non-scaling-stroke" fill-rule="evenodd" d="M-108,2.5 L108,2.5 L108,-2.5 L-108,-2.5 L-108,2.5"/>
</g>

<g fill="none" stroke="#000000" stroke-opacity="1" stroke-width="1" stroke-linecap="square" stroke-linejoin="bevel" transform="matrix(0.5,0.866025,-0.866025,0.5,57.8477,703.915)"
font-family=".SF NS Text" font-size="10" font-weight="400" font-style="normal"
>
</g>

<g fill="none" stroke="#000000" stroke-opacity="1" stroke-width="1" stroke-linecap="square" stroke-linejoin="bevel" transform="matrix(-0.5,0.866025,-0.866025,-0.5,202.816,397.28)"
font-family=".SF NS Text" font-size="10" font-weight="400" font-style="normal"
>
</g>

<g fill="none" stroke="#ffffff" stroke-opacity="0.501961" stroke-width="1" stroke-linecap="square" stroke-linejoin="bevel" transform="matrix(-0.5,0.866025,-0.866025,-0.5,202.816,397.28)"
font-family=".SF NS Text" font-size="10" font-weight="400" font-style="normal"
>
<path vector-effect="non-scaling-stroke" fill-rule="evenodd" d="M-180,2.5 L180,2.5 L180,-2.5 L-180,-2.5 L-180,2.5"/>
</g>

<g fill="none" stroke="#000000" stroke-opacity="1" stroke-width="1" stroke-linecap="square" stroke-linejoin="bevel" transform="matrix(-0.5,0.866025,-0.866025,-0.5,202.816,397.28)"
font-family=".SF NS Text" font-size="10" font-weight="400" font-style="normal"
>
</g>

<g fill="none" stroke="#000000" stroke-opacity="1" stroke-width="1" stroke-linecap="square" stroke-linejoin="bevel" transform="matrix(-0.5,0.866025,-0.866025,-0.5,734.604,485.072)"
font-family=".SF NS Text" font-size="10" font-weight="400" font-style="normal"
>
</g>

<g fill="none" stroke="#ffffff" stroke-opacity="0.501961" stroke-width="1" stroke-linecap="square" stroke-linejoin="bevel" transform="matrix(-0.5,0.866025,-0.866025,-0.5,734.604,485.072)"
font-family=".SF NS Text" font-size="10" font-weight="400" font-style="normal"
>
<path vector-effect="non-scaling-stroke" fill-rule="evenodd" d="M-108,2.5 L108,2.5 L108,-2.5 L-108,-2.5 L-108,2.5"/>
</g>

<g fill="none" stroke="#000000" stroke-opacity="1" stroke-width="1" stroke-linecap="square" stroke-linejoin="bevel" transform="matrix(-0.5,0.866025,-0.866025,-0.5,734.604,485.072)"
font-family=".SF NS Text" font-size="10" font-weight="400" font-style="normal"
>
</g>

<g fill="none" stroke="#000000" stroke-opacity="1" stroke-width="1" stroke-linecap="square" stroke-linejoin="bevel" transform="matrix(0.5,0.866025,-0.866025,0.5,351.146,334.926)"
font-family=".SF NS Text" font-size="10" font-weight="400" font-style="normal"
>
</g>

<g fill="none" stroke="#ffffff" stroke-opacity="0.501961" stroke-width="1" stroke-linecap="square" stroke-linejoin="bevel" transform="matrix(0.5,0.866025,-0.866025,0.5,351.146,334.926)"
font-family=".SF NS Text" font-size="10" font-weight="400" font-style="normal"
>
<path vector-effect="non-scaling-stroke" fill-rule="evenodd" d="M-108,2.5 L108,2.5 L108,-2.5 L-108,-2.5 L-108,2.5"/>
</g>

<g fill="none" stroke="#000000" stroke-opacity="1" stroke-width="1" stroke-linecap="square" stroke-linejoin="bevel" transform="matrix(0.5,0.866025,-0.866025,0.5,351.146,334.926)"
font-family=".SF NS Text" font-size="10" font-weight="400" font-style="normal"
>
</g>

<g fill="none" stroke="#000000" stroke-opacity="1" stroke-width="1" stroke-linecap="square" stroke-linejoin="bevel" transform="matrix(1,0,0,1,0,0)"
font-family=".SF NS Text" font-size="10" font-weight="400" font-style="normal"
>
</g>
</g>
</svg>
